<?xml version="1.0" encoding="utf-8" standalone="no"?>
<!DOCTYPE svg PUBLIC "-//W3C//DTD SVG 1.1//EN"
  "http://www.w3.org/Graphics/SVG/1.1/DTD/svg11.dtd">
<svg xmlns:xlink="http://www.w3.org/1999/xlink" width="468pt" height="216pt" viewBox="0 0 468 216" xmlns="http://www.w3.org/2000/svg" version="1.1">
 <metadata>
  <rdf:RDF xmlns:dc="http://purl.org/dc/elements/1.1/" xmlns:cc="http://creativecommons.org/ns#" xmlns:rdf="http://www.w3.org/1999/02/22-rdf-syntax-ns#">
   <cc:Work>
    <dc:type rdf:resource="http://purl.org/dc/dcmitype/StillImage"/>
    <dc:date>2022-05-02T01:07:48.320442</dc:date>
    <dc:format>image/svg+xml</dc:format>
    <dc:creator>
     <cc:Agent>
      <dc:title>Matplotlib v3.5.1, https://matplotlib.org/</dc:title>
     </cc:Agent>
    </dc:creator>
   </cc:Work>
  </rdf:RDF>
 </metadata>
 <defs>
  <style type="text/css">*{stroke-linejoin: round; stroke-linecap: butt}</style>
 </defs>
 <g id="figure_1">
  <g id="patch_1">
   <path d="M 0 216 
L 468 216 
L 468 0 
L 0 0 
z
" style="fill: #ffffff"/>
  </g>
  <g id="axes_1">
   <g id="patch_2">
    <path d="M 58.5 192.24 
L 421.2 192.24 
L 421.2 25.92 
L 58.5 25.92 
z
" style="fill: #ffffff"/>
   </g>
   <g id="PathCollection_1">
    <defs>
     <path id="m6649b126e9" d="M -3 3 
L 3 -3 
M -3 -3 
L 3 3 
" style="stroke: #ff0000; stroke-width: 1.5"/>
    </defs>
    <g clip-path="url(#p1291147955)">
     <use xlink:href="#m6649b126e9" x="81.16875" y="183.138068" style="fill: #ff0000; stroke: #ff0000; stroke-width: 1.5"/>
     <use xlink:href="#m6649b126e9" x="94.77" y="183.138068" style="fill: #ff0000; stroke: #ff0000; stroke-width: 1.5"/>
     <use xlink:href="#m6649b126e9" x="121.9725" y="183.138068" style="fill: #ff0000; stroke: #ff0000; stroke-width: 1.5"/>
     <use xlink:href="#m6649b126e9" x="137.840625" y="183.138068" style="fill: #ff0000; stroke: #ff0000; stroke-width: 1.5"/>
     <use xlink:href="#m6649b126e9" x="169.576875" y="33.48" style="fill: #ff0000; stroke: #ff0000; stroke-width: 1.5"/>
     <use xlink:href="#m6649b126e9" x="189.97875" y="33.48" style="fill: #ff0000; stroke: #ff0000; stroke-width: 1.5"/>
     <use xlink:href="#m6649b126e9" x="217.18125" y="33.48" style="fill: #ff0000; stroke: #ff0000; stroke-width: 1.5"/>
     <use xlink:href="#m6649b126e9" x="251.184375" y="33.48" style="fill: #ff0000; stroke: #ff0000; stroke-width: 1.5"/>
     <use xlink:href="#m6649b126e9" x="409.865625" y="33.48" style="fill: #ff0000; stroke: #ff0000; stroke-width: 1.5"/>
    </g>
   </g>
   <g id="matplotlib.axis_1">
    <g id="text_1">
     <!-- x(features) -->
     <g transform="translate(212.335156 203.838437)scale(0.1 -0.1)">
      <defs>
       <path id="DejaVuSans-78" d="M 3513 3500 
L 2247 1797 
L 3578 0 
L 2900 0 
L 1881 1375 
L 863 0 
L 184 0 
L 1544 1831 
L 300 3500 
L 978 3500 
L 1906 2253 
L 2834 3500 
L 3513 3500 
z
" transform="scale(0.015625)"/>
       <path id="DejaVuSans-28" d="M 1984 4856 
Q 1566 4138 1362 3434 
Q 1159 2731 1159 2009 
Q 1159 1288 1364 580 
Q 1569 -128 1984 -844 
L 1484 -844 
Q 1016 -109 783 600 
Q 550 1309 550 2009 
Q 550 2706 781 3412 
Q 1013 4119 1484 4856 
L 1984 4856 
z
" transform="scale(0.015625)"/>
       <path id="DejaVuSans-66" d="M 2375 4863 
L 2375 4384 
L 1825 4384 
Q 1516 4384 1395 4259 
Q 1275 4134 1275 3809 
L 1275 3500 
L 2222 3500 
L 2222 3053 
L 1275 3053 
L 1275 0 
L 697 0 
L 697 3053 
L 147 3053 
L 147 3500 
L 697 3500 
L 697 3744 
Q 697 4328 969 4595 
Q 1241 4863 1831 4863 
L 2375 4863 
z
" transform="scale(0.015625)"/>
       <path id="DejaVuSans-65" d="M 3597 1894 
L 3597 1613 
L 953 1613 
Q 991 1019 1311 708 
Q 1631 397 2203 397 
Q 2534 397 2845 478 
Q 3156 559 3463 722 
L 3463 178 
Q 3153 47 2828 -22 
Q 2503 -91 2169 -91 
Q 1331 -91 842 396 
Q 353 884 353 1716 
Q 353 2575 817 3079 
Q 1281 3584 2069 3584 
Q 2775 3584 3186 3129 
Q 3597 2675 3597 1894 
z
M 3022 2063 
Q 3016 2534 2758 2815 
Q 2500 3097 2075 3097 
Q 1594 3097 1305 2825 
Q 1016 2553 972 2059 
L 3022 2063 
z
" transform="scale(0.015625)"/>
       <path id="DejaVuSans-61" d="M 2194 1759 
Q 1497 1759 1228 1600 
Q 959 1441 959 1056 
Q 959 750 1161 570 
Q 1363 391 1709 391 
Q 2188 391 2477 730 
Q 2766 1069 2766 1631 
L 2766 1759 
L 2194 1759 
z
M 3341 1997 
L 3341 0 
L 2766 0 
L 2766 531 
Q 2569 213 2275 61 
Q 1981 -91 1556 -91 
Q 1019 -91 701 211 
Q 384 513 384 1019 
Q 384 1609 779 1909 
Q 1175 2209 1959 2209 
L 2766 2209 
L 2766 2266 
Q 2766 2663 2505 2880 
Q 2244 3097 1772 3097 
Q 1472 3097 1187 3025 
Q 903 2953 641 2809 
L 641 3341 
Q 956 3463 1253 3523 
Q 1550 3584 1831 3584 
Q 2591 3584 2966 3190 
Q 3341 2797 3341 1997 
z
" transform="scale(0.015625)"/>
       <path id="DejaVuSans-74" d="M 1172 4494 
L 1172 3500 
L 2356 3500 
L 2356 3053 
L 1172 3053 
L 1172 1153 
Q 1172 725 1289 603 
Q 1406 481 1766 481 
L 2356 481 
L 2356 0 
L 1766 0 
Q 1100 0 847 248 
Q 594 497 594 1153 
L 594 3053 
L 172 3053 
L 172 3500 
L 594 3500 
L 594 4494 
L 1172 4494 
z
" transform="scale(0.015625)"/>
       <path id="DejaVuSans-75" d="M 544 1381 
L 544 3500 
L 1119 3500 
L 1119 1403 
Q 1119 906 1312 657 
Q 1506 409 1894 409 
Q 2359 409 2629 706 
Q 2900 1003 2900 1516 
L 2900 3500 
L 3475 3500 
L 3475 0 
L 2900 0 
L 2900 538 
Q 2691 219 2414 64 
Q 2138 -91 1772 -91 
Q 1169 -91 856 284 
Q 544 659 544 1381 
z
M 1991 3584 
L 1991 3584 
z
" transform="scale(0.015625)"/>
       <path id="DejaVuSans-72" d="M 2631 2963 
Q 2534 3019 2420 3045 
Q 2306 3072 2169 3072 
Q 1681 3072 1420 2755 
Q 1159 2438 1159 1844 
L 1159 0 
L 581 0 
L 581 3500 
L 1159 3500 
L 1159 2956 
Q 1341 3275 1631 3429 
Q 1922 3584 2338 3584 
Q 2397 3584 2469 3576 
Q 2541 3569 2628 3553 
L 2631 2963 
z
" transform="scale(0.015625)"/>
       <path id="DejaVuSans-73" d="M 2834 3397 
L 2834 2853 
Q 2591 2978 2328 3040 
Q 2066 3103 1784 3103 
Q 1356 3103 1142 2972 
Q 928 2841 928 2578 
Q 928 2378 1081 2264 
Q 1234 2150 1697 2047 
L 1894 2003 
Q 2506 1872 2764 1633 
Q 3022 1394 3022 966 
Q 3022 478 2636 193 
Q 2250 -91 1575 -91 
Q 1294 -91 989 -36 
Q 684 19 347 128 
L 347 722 
Q 666 556 975 473 
Q 1284 391 1588 391 
Q 1994 391 2212 530 
Q 2431 669 2431 922 
Q 2431 1156 2273 1281 
Q 2116 1406 1581 1522 
L 1381 1569 
Q 847 1681 609 1914 
Q 372 2147 372 2553 
Q 372 3047 722 3315 
Q 1072 3584 1716 3584 
Q 2034 3584 2315 3537 
Q 2597 3491 2834 3397 
z
" transform="scale(0.015625)"/>
       <path id="DejaVuSans-29" d="M 513 4856 
L 1013 4856 
Q 1481 4119 1714 3412 
Q 1947 2706 1947 2009 
Q 1947 1309 1714 600 
Q 1481 -109 1013 -844 
L 513 -844 
Q 928 -128 1133 580 
Q 1338 1288 1338 2009 
Q 1338 2731 1133 3434 
Q 928 4138 513 4856 
z
" transform="scale(0.015625)"/>
      </defs>
      <use xlink:href="#DejaVuSans-78"/>
      <use xlink:href="#DejaVuSans-28" x="59.179688"/>
      <use xlink:href="#DejaVuSans-66" x="98.193359"/>
      <use xlink:href="#DejaVuSans-65" x="133.398438"/>
      <use xlink:href="#DejaVuSans-61" x="194.921875"/>
      <use xlink:href="#DejaVuSans-74" x="256.201172"/>
      <use xlink:href="#DejaVuSans-75" x="295.410156"/>
      <use xlink:href="#DejaVuSans-72" x="358.789062"/>
      <use xlink:href="#DejaVuSans-65" x="397.652344"/>
      <use xlink:href="#DejaVuSans-73" x="459.175781"/>
      <use xlink:href="#DejaVuSans-29" x="511.275391"/>
     </g>
    </g>
   </g>
   <g id="matplotlib.axis_2">
    <g id="ytick_1">
     <g id="line2d_1">
      <defs>
       <path id="md7c1261471" d="M 0 0 
L -3.5 0 
" style="stroke: #000000; stroke-width: 0.8"/>
      </defs>
      <g>
       <use xlink:href="#md7c1261471" x="58.5" y="183.138068" style="stroke: #000000; stroke-width: 0.8"/>
      </g>
     </g>
     <g id="text_2">
      <!-- 0(No) -->
      <g transform="translate(23.734375 186.937287)scale(0.1 -0.1)">
       <defs>
        <path id="DejaVuSans-30" d="M 2034 4250 
Q 1547 4250 1301 3770 
Q 1056 3291 1056 2328 
Q 1056 1369 1301 889 
Q 1547 409 2034 409 
Q 2525 409 2770 889 
Q 3016 1369 3016 2328 
Q 3016 3291 2770 3770 
Q 2525 4250 2034 4250 
z
M 2034 4750 
Q 2819 4750 3233 4129 
Q 3647 3509 3647 2328 
Q 3647 1150 3233 529 
Q 2819 -91 2034 -91 
Q 1250 -91 836 529 
Q 422 1150 422 2328 
Q 422 3509 836 4129 
Q 1250 4750 2034 4750 
z
" transform="scale(0.015625)"/>
        <path id="DejaVuSans-4e" d="M 628 4666 
L 1478 4666 
L 3547 763 
L 3547 4666 
L 4159 4666 
L 4159 0 
L 3309 0 
L 1241 3903 
L 1241 0 
L 628 0 
L 628 4666 
z
" transform="scale(0.015625)"/>
        <path id="DejaVuSans-6f" d="M 1959 3097 
Q 1497 3097 1228 2736 
Q 959 2375 959 1747 
Q 959 1119 1226 758 
Q 1494 397 1959 397 
Q 2419 397 2687 759 
Q 2956 1122 2956 1747 
Q 2956 2369 2687 2733 
Q 2419 3097 1959 3097 
z
M 1959 3584 
Q 2709 3584 3137 3096 
Q 3566 2609 3566 1747 
Q 3566 888 3137 398 
Q 2709 -91 1959 -91 
Q 1206 -91 779 398 
Q 353 888 353 1747 
Q 353 2609 779 3096 
Q 1206 3584 1959 3584 
z
" transform="scale(0.015625)"/>
       </defs>
       <use xlink:href="#DejaVuSans-30"/>
       <use xlink:href="#DejaVuSans-28" x="63.623047"/>
       <use xlink:href="#DejaVuSans-4e" x="102.636719"/>
       <use xlink:href="#DejaVuSans-6f" x="177.441406"/>
       <use xlink:href="#DejaVuSans-29" x="238.623047"/>
      </g>
     </g>
    </g>
    <g id="ytick_2">
     <g id="line2d_2">
      <g>
       <use xlink:href="#md7c1261471" x="58.5" y="33.48" style="stroke: #000000; stroke-width: 0.8"/>
      </g>
     </g>
     <g id="text_3">
      <!-- 1(yes) -->
      <g transform="translate(20.053125 37.279219)scale(0.1 -0.1)">
       <defs>
        <path id="DejaVuSans-31" d="M 794 531 
L 1825 531 
L 1825 4091 
L 703 3866 
L 703 4441 
L 1819 4666 
L 2450 4666 
L 2450 531 
L 3481 531 
L 3481 0 
L 794 0 
L 794 531 
z
" transform="scale(0.015625)"/>
        <path id="DejaVuSans-79" d="M 2059 -325 
Q 1816 -950 1584 -1140 
Q 1353 -1331 966 -1331 
L 506 -1331 
L 506 -850 
L 844 -850 
Q 1081 -850 1212 -737 
Q 1344 -625 1503 -206 
L 1606 56 
L 191 3500 
L 800 3500 
L 1894 763 
L 2988 3500 
L 3597 3500 
L 2059 -325 
z
" transform="scale(0.015625)"/>
       </defs>
       <use xlink:href="#DejaVuSans-31"/>
       <use xlink:href="#DejaVuSans-28" x="63.623047"/>
       <use xlink:href="#DejaVuSans-79" x="102.636719"/>
       <use xlink:href="#DejaVuSans-65" x="161.816406"/>
       <use xlink:href="#DejaVuSans-73" x="223.339844"/>
       <use xlink:href="#DejaVuSans-29" x="275.439453"/>
      </g>
     </g>
    </g>
    <g id="text_4">
     <!-- y(predict target) -->
     <g transform="translate(13.973437 150.199531)rotate(-90)scale(0.1 -0.1)">
      <defs>
       <path id="DejaVuSans-70" d="M 1159 525 
L 1159 -1331 
L 581 -1331 
L 581 3500 
L 1159 3500 
L 1159 2969 
Q 1341 3281 1617 3432 
Q 1894 3584 2278 3584 
Q 2916 3584 3314 3078 
Q 3713 2572 3713 1747 
Q 3713 922 3314 415 
Q 2916 -91 2278 -91 
Q 1894 -91 1617 61 
Q 1341 213 1159 525 
z
M 3116 1747 
Q 3116 2381 2855 2742 
Q 2594 3103 2138 3103 
Q 1681 3103 1420 2742 
Q 1159 2381 1159 1747 
Q 1159 1113 1420 752 
Q 1681 391 2138 391 
Q 2594 391 2855 752 
Q 3116 1113 3116 1747 
z
" transform="scale(0.015625)"/>
       <path id="DejaVuSans-64" d="M 2906 2969 
L 2906 4863 
L 3481 4863 
L 3481 0 
L 2906 0 
L 2906 525 
Q 2725 213 2448 61 
Q 2172 -91 1784 -91 
Q 1150 -91 751 415 
Q 353 922 353 1747 
Q 353 2572 751 3078 
Q 1150 3584 1784 3584 
Q 2172 3584 2448 3432 
Q 2725 3281 2906 2969 
z
M 947 1747 
Q 947 1113 1208 752 
Q 1469 391 1925 391 
Q 2381 391 2643 752 
Q 2906 1113 2906 1747 
Q 2906 2381 2643 2742 
Q 2381 3103 1925 3103 
Q 1469 3103 1208 2742 
Q 947 2381 947 1747 
z
" transform="scale(0.015625)"/>
       <path id="DejaVuSans-69" d="M 603 3500 
L 1178 3500 
L 1178 0 
L 603 0 
L 603 3500 
z
M 603 4863 
L 1178 4863 
L 1178 4134 
L 603 4134 
L 603 4863 
z
" transform="scale(0.015625)"/>
       <path id="DejaVuSans-63" d="M 3122 3366 
L 3122 2828 
Q 2878 2963 2633 3030 
Q 2388 3097 2138 3097 
Q 1578 3097 1268 2742 
Q 959 2388 959 1747 
Q 959 1106 1268 751 
Q 1578 397 2138 397 
Q 2388 397 2633 464 
Q 2878 531 3122 666 
L 3122 134 
Q 2881 22 2623 -34 
Q 2366 -91 2075 -91 
Q 1284 -91 818 406 
Q 353 903 353 1747 
Q 353 2603 823 3093 
Q 1294 3584 2113 3584 
Q 2378 3584 2631 3529 
Q 2884 3475 3122 3366 
z
" transform="scale(0.015625)"/>
       <path id="DejaVuSans-20" transform="scale(0.015625)"/>
       <path id="DejaVuSans-67" d="M 2906 1791 
Q 2906 2416 2648 2759 
Q 2391 3103 1925 3103 
Q 1463 3103 1205 2759 
Q 947 2416 947 1791 
Q 947 1169 1205 825 
Q 1463 481 1925 481 
Q 2391 481 2648 825 
Q 2906 1169 2906 1791 
z
M 3481 434 
Q 3481 -459 3084 -895 
Q 2688 -1331 1869 -1331 
Q 1566 -1331 1297 -1286 
Q 1028 -1241 775 -1147 
L 775 -588 
Q 1028 -725 1275 -790 
Q 1522 -856 1778 -856 
Q 2344 -856 2625 -561 
Q 2906 -266 2906 331 
L 2906 616 
Q 2728 306 2450 153 
Q 2172 0 1784 0 
Q 1141 0 747 490 
Q 353 981 353 1791 
Q 353 2603 747 3093 
Q 1141 3584 1784 3584 
Q 2172 3584 2450 3431 
Q 2728 3278 2906 2969 
L 2906 3500 
L 3481 3500 
L 3481 434 
z
" transform="scale(0.015625)"/>
      </defs>
      <use xlink:href="#DejaVuSans-79"/>
      <use xlink:href="#DejaVuSans-28" x="59.179688"/>
      <use xlink:href="#DejaVuSans-70" x="98.193359"/>
      <use xlink:href="#DejaVuSans-72" x="161.669922"/>
      <use xlink:href="#DejaVuSans-65" x="200.533203"/>
      <use xlink:href="#DejaVuSans-64" x="262.056641"/>
      <use xlink:href="#DejaVuSans-69" x="325.533203"/>
      <use xlink:href="#DejaVuSans-63" x="353.316406"/>
      <use xlink:href="#DejaVuSans-74" x="408.296875"/>
      <use xlink:href="#DejaVuSans-20" x="447.505859"/>
      <use xlink:href="#DejaVuSans-74" x="479.292969"/>
      <use xlink:href="#DejaVuSans-61" x="518.501953"/>
      <use xlink:href="#DejaVuSans-72" x="579.78125"/>
      <use xlink:href="#DejaVuSans-67" x="619.144531"/>
      <use xlink:href="#DejaVuSans-65" x="682.621094"/>
      <use xlink:href="#DejaVuSans-74" x="744.144531"/>
      <use xlink:href="#DejaVuSans-29" x="783.353516"/>
     </g>
    </g>
   </g>
   <g id="line2d_3">
    <path d="M 58.5 184.68 
L 409.865625 44.092118 
L 409.865625 44.092118 
" clip-path="url(#p1291147955)" style="fill: none; stroke-dasharray: 5.55,2.4; stroke-dashoffset: 0; stroke: #000000; stroke-width: 1.5"/>
   </g>
   <g id="line2d_4">
    <path d="M 24.496875 183.138068 
L 28.847443 183.138068 
L 33.198011 183.138068 
L 37.54858 183.138068 
L 41.899148 183.138068 
L 46.249716 183.138068 
L 50.600284 183.138068 
L 54.950852 183.138068 
L 59.30142 183.138068 
L 63.651989 183.138068 
L 68.002557 183.138068 
L 72.353125 183.138068 
L 76.703693 183.138068 
L 81.054261 183.138068 
L 85.40483 183.138068 
L 89.755398 183.138068 
L 94.105966 183.138068 
L 98.456534 183.138068 
L 102.807102 183.138068 
L 107.15767 183.138068 
L 111.508239 183.138068 
L 115.858807 183.138068 
L 120.209375 183.138068 
L 124.559943 183.138068 
L 128.910511 183.138068 
L 133.26108 183.138068 
L 137.611648 183.138068 
L 141.962216 183.138068 
L 146.312784 183.138068 
L 150.663352 183.138068 
L 155.01392 183.138068 
L 159.364489 183.138068 
L 163.715057 183.138068 
L 168.065625 183.138068 
L 172.416193 183.138068 
L 176.766761 183.138068 
L 181.11733 183.138068 
L 185.467898 183.138068 
L 189.818466 183.138068 
L 194.169034 183.138068 
L 198.519602 183.138068 
L 202.87017 183.138068 
L 207.220739 183.138068 
L 211.571307 183.138068 
L 215.921875 183.138068 
L 220.272443 183.138068 
L 224.623011 183.138068 
L 228.97358 183.138068 
L 233.324148 183.138068 
L 237.674716 183.138068 
L 242.025284 183.138068 
L 246.375852 183.138068 
L 250.72642 183.138068 
L 255.076989 183.138068 
L 259.427557 183.138068 
L 263.778125 183.138068 
L 268.128693 183.138068 
L 272.479261 183.138068 
L 276.82983 183.138068 
L 281.180398 183.138068 
L 285.530966 183.138068 
L 289.881534 183.138068 
L 294.232102 183.138068 
L 298.58267 183.138068 
L 302.933239 183.138068 
L 307.283807 183.138068 
L 311.634375 183.138068 
L 315.984943 183.138068 
L 320.335511 183.138068 
L 324.68608 183.138068 
L 329.036648 183.138068 
L 333.387216 183.138068 
L 337.737784 183.138068 
L 342.088352 183.138068 
L 346.43892 183.138068 
L 350.789489 183.138068 
L 355.140057 183.138068 
L 359.490625 183.138068 
L 363.841193 183.138068 
L 368.191761 183.138068 
L 372.54233 183.138068 
L 376.892898 183.138068 
L 381.243466 183.138068 
L 385.594034 183.138068 
L 389.944602 183.138068 
L 394.29517 183.138068 
L 398.645739 183.138068 
L 402.996307 183.138068 
L 407.346875 183.138068 
L 411.697443 183.138068 
L 416.048011 183.138068 
L 420.39858 183.138068 
L 424.749148 183.138068 
L 429.099716 183.138068 
L 433.450284 183.138068 
L 437.800852 183.138068 
L 442.15142 183.138068 
L 446.501989 183.138068 
L 450.852557 183.138068 
L 455.203125 183.138068 
" clip-path="url(#p1291147955)" style="fill: none; stroke: #000000; stroke-opacity: 0.3; stroke-width: 1.5; stroke-linecap: square"/>
   </g>
   <g id="line2d_5">
    <path d="M 24.496875 33.48 
L 28.847443 33.48 
L 33.198011 33.48 
L 37.54858 33.48 
L 41.899148 33.48 
L 46.249716 33.48 
L 50.600284 33.48 
L 54.950852 33.48 
L 59.30142 33.48 
L 63.651989 33.48 
L 68.002557 33.48 
L 72.353125 33.48 
L 76.703693 33.48 
L 81.054261 33.48 
L 85.40483 33.48 
L 89.755398 33.48 
L 94.105966 33.48 
L 98.456534 33.48 
L 102.807102 33.48 
L 107.15767 33.48 
L 111.508239 33.48 
L 115.858807 33.48 
L 120.209375 33.48 
L 124.559943 33.48 
L 128.910511 33.48 
L 133.26108 33.48 
L 137.611648 33.48 
L 141.962216 33.48 
L 146.312784 33.48 
L 150.663352 33.48 
L 155.01392 33.48 
L 159.364489 33.48 
L 163.715057 33.48 
L 168.065625 33.48 
L 172.416193 33.48 
L 176.766761 33.48 
L 181.11733 33.48 
L 185.467898 33.48 
L 189.818466 33.48 
L 194.169034 33.48 
L 198.519602 33.48 
L 202.87017 33.48 
L 207.220739 33.48 
L 211.571307 33.48 
L 215.921875 33.48 
L 220.272443 33.48 
L 224.623011 33.48 
L 228.97358 33.48 
L 233.324148 33.48 
L 237.674716 33.48 
L 242.025284 33.48 
L 246.375852 33.48 
L 250.72642 33.48 
L 255.076989 33.48 
L 259.427557 33.48 
L 263.778125 33.48 
L 268.128693 33.48 
L 272.479261 33.48 
L 276.82983 33.48 
L 281.180398 33.48 
L 285.530966 33.48 
L 289.881534 33.48 
L 294.232102 33.48 
L 298.58267 33.48 
L 302.933239 33.48 
L 307.283807 33.48 
L 311.634375 33.48 
L 315.984943 33.48 
L 320.335511 33.48 
L 324.68608 33.48 
L 329.036648 33.48 
L 333.387216 33.48 
L 337.737784 33.48 
L 342.088352 33.48 
L 346.43892 33.48 
L 350.789489 33.48 
L 355.140057 33.48 
L 359.490625 33.48 
L 363.841193 33.48 
L 368.191761 33.48 
L 372.54233 33.48 
L 376.892898 33.48 
L 381.243466 33.48 
L 385.594034 33.48 
L 389.944602 33.48 
L 394.29517 33.48 
L 398.645739 33.48 
L 402.996307 33.48 
L 407.346875 33.48 
L 411.697443 33.48 
L 416.048011 33.48 
L 420.39858 33.48 
L 424.749148 33.48 
L 429.099716 33.48 
L 433.450284 33.48 
L 437.800852 33.48 
L 442.15142 33.48 
L 446.501989 33.48 
L 450.852557 33.48 
L 455.203125 33.48 
" clip-path="url(#p1291147955)" style="fill: none; stroke: #000000; stroke-opacity: 0.3; stroke-width: 1.5; stroke-linecap: square"/>
   </g>
   <g id="patch_3">
    <path d="M 58.5 192.24 
L 58.5 25.92 
" style="fill: none; stroke: #000000; stroke-width: 0.8; stroke-linejoin: miter; stroke-linecap: square"/>
   </g>
   <g id="patch_4">
    <path d="M 421.2 192.24 
L 421.2 25.92 
" style="fill: none; stroke: #000000; stroke-width: 0.8; stroke-linejoin: miter; stroke-linecap: square"/>
   </g>
   <g id="patch_5">
    <path d="M 58.5 192.24 
L 421.2 192.24 
" style="fill: none; stroke: #000000; stroke-width: 0.8; stroke-linejoin: miter; stroke-linecap: square"/>
   </g>
   <g id="patch_6">
    <path d="M 58.5 25.92 
L 421.2 25.92 
" style="fill: none; stroke: #000000; stroke-width: 0.8; stroke-linejoin: miter; stroke-linecap: square"/>
   </g>
   <g id="text_5">
    <!-- Example -->
    <g transform="translate(213.818437 19.92)scale(0.12 -0.12)">
     <defs>
      <path id="DejaVuSans-45" d="M 628 4666 
L 3578 4666 
L 3578 4134 
L 1259 4134 
L 1259 2753 
L 3481 2753 
L 3481 2222 
L 1259 2222 
L 1259 531 
L 3634 531 
L 3634 0 
L 628 0 
L 628 4666 
z
" transform="scale(0.015625)"/>
      <path id="DejaVuSans-6d" d="M 3328 2828 
Q 3544 3216 3844 3400 
Q 4144 3584 4550 3584 
Q 5097 3584 5394 3201 
Q 5691 2819 5691 2113 
L 5691 0 
L 5113 0 
L 5113 2094 
Q 5113 2597 4934 2840 
Q 4756 3084 4391 3084 
Q 3944 3084 3684 2787 
Q 3425 2491 3425 1978 
L 3425 0 
L 2847 0 
L 2847 2094 
Q 2847 2600 2669 2842 
Q 2491 3084 2119 3084 
Q 1678 3084 1418 2786 
Q 1159 2488 1159 1978 
L 1159 0 
L 581 0 
L 581 3500 
L 1159 3500 
L 1159 2956 
Q 1356 3278 1631 3431 
Q 1906 3584 2284 3584 
Q 2666 3584 2933 3390 
Q 3200 3197 3328 2828 
z
" transform="scale(0.015625)"/>
      <path id="DejaVuSans-6c" d="M 603 4863 
L 1178 4863 
L 1178 0 
L 603 0 
L 603 4863 
z
" transform="scale(0.015625)"/>
     </defs>
     <use xlink:href="#DejaVuSans-45"/>
     <use xlink:href="#DejaVuSans-78" x="63.183594"/>
     <use xlink:href="#DejaVuSans-61" x="122.363281"/>
     <use xlink:href="#DejaVuSans-6d" x="183.642578"/>
     <use xlink:href="#DejaVuSans-70" x="281.054688"/>
     <use xlink:href="#DejaVuSans-6c" x="344.53125"/>
     <use xlink:href="#DejaVuSans-65" x="372.314453"/>
    </g>
   </g>
  </g>
 </g>
 <defs>
  <clipPath id="p1291147955">
   <rect x="58.5" y="25.92" width="362.7" height="166.32"/>
  </clipPath>
 </defs>
</svg>
