<?xml version="1.0" encoding="utf-8" standalone="no"?>
<!DOCTYPE svg PUBLIC "-//W3C//DTD SVG 1.1//EN"
  "http://www.w3.org/Graphics/SVG/1.1/DTD/svg11.dtd">
<svg xmlns:xlink="http://www.w3.org/1999/xlink" width="460.8pt" height="345.6pt" viewBox="0 0 460.8 345.6" xmlns="http://www.w3.org/2000/svg" version="1.1">
 <metadata>
  <rdf:RDF xmlns:dc="http://purl.org/dc/elements/1.1/" xmlns:cc="http://creativecommons.org/ns#" xmlns:rdf="http://www.w3.org/1999/02/22-rdf-syntax-ns#">
   <cc:Work>
    <dc:type rdf:resource="http://purl.org/dc/dcmitype/StillImage"/>
    <dc:date>2022-04-07T13:38:44.168236</dc:date>
    <dc:format>image/svg+xml</dc:format>
    <dc:creator>
     <cc:Agent>
      <dc:title>Matplotlib v3.5.1, https://matplotlib.org/</dc:title>
     </cc:Agent>
    </dc:creator>
   </cc:Work>
  </rdf:RDF>
 </metadata>
 <defs>
  <style type="text/css">*{stroke-linejoin: round; stroke-linecap: butt}</style>
 </defs>
 <g id="figure_1">
  <g id="patch_1">
   <path d="M 0 345.6 
L 460.8 345.6 
L 460.8 0 
L 0 0 
z
" style="fill: #ffffff"/>
  </g>
  <g id="axes_1">
   <g id="patch_2">
    <path d="M 57.6 307.584 
L 414.72 307.584 
L 414.72 41.472 
L 57.6 41.472 
z
" style="fill: #ffffff"/>
   </g>
   <g id="PathCollection_1">
    <defs>
     <path id="m806920c007" d="M 0 1.936492 
C 0.513564 1.936492 1.006162 1.732451 1.369306 1.369306 
C 1.732451 1.006162 1.936492 0.513564 1.936492 0 
C 1.936492 -0.513564 1.732451 -1.006162 1.369306 -1.369306 
C 1.006162 -1.732451 0.513564 -1.936492 0 -1.936492 
C -0.513564 -1.936492 -1.006162 -1.732451 -1.369306 -1.369306 
C -1.732451 -1.006162 -1.936492 -0.513564 -1.936492 0 
C -1.936492 0.513564 -1.732451 1.006162 -1.369306 1.369306 
C -1.006162 1.732451 -0.513564 1.936492 0 1.936492 
z
" style="stroke: #ff0000"/>
    </defs>
    <g clip-path="url(#p11d07fb660)">
     <use xlink:href="#m806920c007" x="86.31554" y="280.391293" style="fill: #ff0000; stroke: #ff0000"/>
     <use xlink:href="#m806920c007" x="73.832727" y="295.488" style="fill: #ff0000; stroke: #ff0000"/>
     <use xlink:href="#m806920c007" x="104.404387" y="274.508716" style="fill: #ff0000; stroke: #ff0000"/>
     <use xlink:href="#m806920c007" x="76.545148" y="266.699177" style="fill: #ff0000; stroke: #ff0000"/>
     <use xlink:href="#m806920c007" x="162.612715" y="268.559165" style="fill: #ff0000; stroke: #ff0000"/>
     <use xlink:href="#m806920c007" x="93.599163" y="271.038653" style="fill: #ff0000; stroke: #ff0000"/>
     <use xlink:href="#m806920c007" x="124.775466" y="266.983374" style="fill: #ff0000; stroke: #ff0000"/>
     <use xlink:href="#m806920c007" x="192.256917" y="247.338378" style="fill: #ff0000; stroke: #ff0000"/>
     <use xlink:href="#m806920c007" x="202.394983" y="258.224158" style="fill: #ff0000; stroke: #ff0000"/>
     <use xlink:href="#m806920c007" x="148.764468" y="255.598653" style="fill: #ff0000; stroke: #ff0000"/>
     <use xlink:href="#m806920c007" x="195.126645" y="235.03944" style="fill: #ff0000; stroke: #ff0000"/>
     <use xlink:href="#m806920c007" x="136.677273" y="223.184898" style="fill: #ff0000; stroke: #ff0000"/>
     <use xlink:href="#m806920c007" x="180.396236" y="243.543685" style="fill: #ff0000; stroke: #ff0000"/>
     <use xlink:href="#m806920c007" x="219.617066" y="225.333401" style="fill: #ff0000; stroke: #ff0000"/>
     <use xlink:href="#m806920c007" x="184.078672" y="212.621713" style="fill: #ff0000; stroke: #ff0000"/>
     <use xlink:href="#m806920c007" x="195.579208" y="213.153405" style="fill: #ff0000; stroke: #ff0000"/>
     <use xlink:href="#m806920c007" x="139.773975" y="205.500673" style="fill: #ff0000; stroke: #ff0000"/>
     <use xlink:href="#m806920c007" x="180.375165" y="212.112241" style="fill: #ff0000; stroke: #ff0000"/>
     <use xlink:href="#m806920c007" x="154.901644" y="190.788942" style="fill: #ff0000; stroke: #ff0000"/>
     <use xlink:href="#m806920c007" x="185.288382" y="191.402748" style="fill: #ff0000; stroke: #ff0000"/>
     <use xlink:href="#m806920c007" x="193.41743" y="191.191907" style="fill: #ff0000; stroke: #ff0000"/>
     <use xlink:href="#m806920c007" x="247.91235" y="197.022803" style="fill: #ff0000; stroke: #ff0000"/>
     <use xlink:href="#m806920c007" x="171.806355" y="186.143615" style="fill: #ff0000; stroke: #ff0000"/>
     <use xlink:href="#m806920c007" x="220.356123" y="173.422292" style="fill: #ff0000; stroke: #ff0000"/>
     <use xlink:href="#m806920c007" x="212.969868" y="174.806112" style="fill: #ff0000; stroke: #ff0000"/>
     <use xlink:href="#m806920c007" x="253.977656" y="170.250371" style="fill: #ff0000; stroke: #ff0000"/>
     <use xlink:href="#m806920c007" x="227.108745" y="160.625811" style="fill: #ff0000; stroke: #ff0000"/>
     <use xlink:href="#m806920c007" x="198.785581" y="158.631559" style="fill: #ff0000; stroke: #ff0000"/>
     <use xlink:href="#m806920c007" x="296.967209" y="150.237188" style="fill: #ff0000; stroke: #ff0000"/>
     <use xlink:href="#m806920c007" x="289.346902" y="146.780531" style="fill: #ff0000; stroke: #ff0000"/>
     <use xlink:href="#m806920c007" x="307.417823" y="136.61538" style="fill: #ff0000; stroke: #ff0000"/>
     <use xlink:href="#m806920c007" x="261.636068" y="139.355904" style="fill: #ff0000; stroke: #ff0000"/>
     <use xlink:href="#m806920c007" x="287.830819" y="124.353575" style="fill: #ff0000; stroke: #ff0000"/>
     <use xlink:href="#m806920c007" x="282.936157" y="135.18625" style="fill: #ff0000; stroke: #ff0000"/>
     <use xlink:href="#m806920c007" x="297.62427" y="136.476836" style="fill: #ff0000; stroke: #ff0000"/>
     <use xlink:href="#m806920c007" x="265.709117" y="126.151437" style="fill: #ff0000; stroke: #ff0000"/>
     <use xlink:href="#m806920c007" x="275.324647" y="126.329128" style="fill: #ff0000; stroke: #ff0000"/>
     <use xlink:href="#m806920c007" x="250.08383" y="102.656294" style="fill: #ff0000; stroke: #ff0000"/>
     <use xlink:href="#m806920c007" x="286.220197" y="118.578955" style="fill: #ff0000; stroke: #ff0000"/>
     <use xlink:href="#m806920c007" x="284.779162" y="98.486193" style="fill: #ff0000; stroke: #ff0000"/>
     <use xlink:href="#m806920c007" x="325.1143" y="95.805917" style="fill: #ff0000; stroke: #ff0000"/>
     <use xlink:href="#m806920c007" x="331.320305" y="83.854341" style="fill: #ff0000; stroke: #ff0000"/>
     <use xlink:href="#m806920c007" x="326.618293" y="95.505306" style="fill: #ff0000; stroke: #ff0000"/>
     <use xlink:href="#m806920c007" x="311.712221" y="73.335192" style="fill: #ff0000; stroke: #ff0000"/>
     <use xlink:href="#m806920c007" x="291.678278" y="81.939614" style="fill: #ff0000; stroke: #ff0000"/>
     <use xlink:href="#m806920c007" x="398.487273" y="66.514118" style="fill: #ff0000; stroke: #ff0000"/>
     <use xlink:href="#m806920c007" x="332.896064" y="73.887885" style="fill: #ff0000; stroke: #ff0000"/>
     <use xlink:href="#m806920c007" x="355.459273" y="53.568" style="fill: #ff0000; stroke: #ff0000"/>
    </g>
   </g>
   <g id="matplotlib.axis_1">
    <g id="xtick_1">
     <g id="line2d_1">
      <defs>
       <path id="mba3c09c88a" d="M 0 0 
L 0 3.5 
" style="stroke: #000000; stroke-width: 0.8"/>
      </defs>
      <g>
       <use xlink:href="#mba3c09c88a" x="95.024807" y="307.584" style="stroke: #000000; stroke-width: 0.8"/>
      </g>
     </g>
     <g id="text_1">
      <!-- 4 -->
      <g transform="translate(92.524807 321.459)scale(0.1 -0.1)">
       <defs>
        <path id="SimHei-34" d="M 2000 1100 
L 75 1100 
L 75 1525 
L 2100 4450 
L 2475 4450 
L 2475 1525 
L 3075 1525 
L 3075 1100 
L 2475 1100 
L 2475 150 
L 2000 150 
L 2000 1100 
z
M 2000 1525 
L 2000 3500 
L 600 1525 
L 2000 1525 
z
" transform="scale(0.015625)"/>
       </defs>
       <use xlink:href="#SimHei-34"/>
      </g>
     </g>
    </g>
    <g id="xtick_2">
     <g id="line2d_2">
      <g>
       <use xlink:href="#mba3c09c88a" x="139.409821" y="307.584" style="stroke: #000000; stroke-width: 0.8"/>
      </g>
     </g>
     <g id="text_2">
      <!-- 6 -->
      <g transform="translate(136.909821 321.459)scale(0.1 -0.1)">
       <defs>
        <path id="SimHei-36" d="M 250 1612 
Q 275 1975 387 2225 
Q 500 2475 725 2850 
L 1750 4450 
L 2325 4450 
L 1275 2800 
Q 1950 2975 2350 2750 
Q 2750 2525 2887 2237 
Q 3025 1950 3037 1612 
Q 3050 1275 2937 950 
Q 2825 625 2537 362 
Q 2250 100 1737 75 
Q 1225 50 862 262 
Q 500 475 362 862 
Q 225 1250 250 1612 
z
M 1025 787 
Q 1250 550 1625 525 
Q 2000 500 2250 775 
Q 2500 1050 2500 1575 
Q 2500 2100 2187 2300 
Q 1875 2500 1487 2450 
Q 1100 2400 925 2075 
Q 750 1750 775 1387 
Q 800 1025 1025 787 
z
" transform="scale(0.015625)"/>
       </defs>
       <use xlink:href="#SimHei-36"/>
      </g>
     </g>
    </g>
    <g id="xtick_3">
     <g id="line2d_3">
      <g>
       <use xlink:href="#mba3c09c88a" x="183.794835" y="307.584" style="stroke: #000000; stroke-width: 0.8"/>
      </g>
     </g>
     <g id="text_3">
      <!-- 8 -->
      <g transform="translate(181.294835 321.459)scale(0.1 -0.1)">
       <defs>
        <path id="SimHei-38" d="M 175 1375 
Q 175 1675 325 1962 
Q 475 2250 825 2425 
Q 525 2600 425 2812 
Q 325 3025 312 3300 
Q 300 3575 387 3775 
Q 475 3975 650 4150 
Q 825 4325 1037 4387 
Q 1250 4450 1500 4450 
Q 1750 4450 1950 4400 
Q 2150 4350 2375 4187 
Q 2600 4025 2700 3725 
Q 2800 3425 2687 3025 
Q 2575 2625 2100 2400 
Q 2525 2275 2700 2012 
Q 2875 1750 2875 1375 
Q 2875 1000 2762 775 
Q 2650 550 2512 400 
Q 2375 250 2137 162 
Q 1900 75 1537 75 
Q 1175 75 912 162 
Q 650 250 475 425 
Q 300 600 237 837 
Q 175 1075 175 1375 
z
M 687 1400 
Q 675 1100 787 875 
Q 900 650 1200 587 
Q 1500 525 1825 600 
Q 2150 675 2275 950 
Q 2400 1225 2362 1500 
Q 2325 1775 2050 1962 
Q 1775 2150 1450 2125 
Q 1125 2100 912 1900 
Q 700 1700 687 1400 
z
M 775 3350 
Q 775 3100 950 2875 
Q 1125 2650 1500 2650 
Q 1875 2650 2062 2875 
Q 2250 3100 2237 3412 
Q 2225 3725 2012 3875 
Q 1800 4025 1437 4000 
Q 1075 3975 925 3787 
Q 775 3600 775 3350 
z
" transform="scale(0.015625)"/>
       </defs>
       <use xlink:href="#SimHei-38"/>
      </g>
     </g>
    </g>
    <g id="xtick_4">
     <g id="line2d_4">
      <g>
       <use xlink:href="#mba3c09c88a" x="228.179849" y="307.584" style="stroke: #000000; stroke-width: 0.8"/>
      </g>
     </g>
     <g id="text_4">
      <!-- 10 -->
      <g transform="translate(223.179849 321.459)scale(0.1 -0.1)">
       <defs>
        <path id="SimHei-31" d="M 1400 3600 
Q 1075 3275 575 2975 
L 575 3450 
Q 1200 3875 1600 4450 
L 1900 4450 
L 1900 150 
L 1400 150 
L 1400 3600 
z
" transform="scale(0.015625)"/>
        <path id="SimHei-30" d="M 225 2537 
Q 250 3200 412 3587 
Q 575 3975 875 4225 
Q 1175 4475 1612 4475 
Q 2050 4475 2375 4112 
Q 2700 3750 2800 3200 
Q 2900 2650 2862 1937 
Q 2825 1225 2612 775 
Q 2400 325 1975 150 
Q 1550 -25 1125 187 
Q 700 400 525 750 
Q 350 1100 275 1487 
Q 200 1875 225 2537 
z
M 750 2687 
Q 675 2000 800 1462 
Q 925 925 1212 700 
Q 1500 475 1800 612 
Q 2100 750 2237 1162 
Q 2375 1575 2375 2062 
Q 2375 2550 2337 2950 
Q 2300 3350 2112 3675 
Q 1925 4000 1612 4012 
Q 1300 4025 1062 3700 
Q 825 3375 750 2687 
z
" transform="scale(0.015625)"/>
       </defs>
       <use xlink:href="#SimHei-31"/>
       <use xlink:href="#SimHei-30" x="50"/>
      </g>
     </g>
    </g>
    <g id="xtick_5">
     <g id="line2d_5">
      <g>
       <use xlink:href="#mba3c09c88a" x="272.564863" y="307.584" style="stroke: #000000; stroke-width: 0.8"/>
      </g>
     </g>
     <g id="text_5">
      <!-- 12 -->
      <g transform="translate(267.564863 321.459)scale(0.1 -0.1)">
       <defs>
        <path id="SimHei-32" d="M 300 250 
Q 325 625 650 925 
Q 975 1225 1475 1862 
Q 1975 2500 2125 2850 
Q 2275 3200 2237 3450 
Q 2200 3700 2000 3862 
Q 1800 4025 1537 4000 
Q 1275 3975 1037 3800 
Q 800 3625 675 3275 
L 200 3350 
Q 400 3925 712 4187 
Q 1025 4450 1450 4475 
Q 1700 4500 1900 4462 
Q 2100 4425 2312 4287 
Q 2525 4150 2662 3875 
Q 2800 3600 2762 3212 
Q 2725 2825 2375 2287 
Q 2025 1750 1025 600 
L 2825 600 
L 2825 150 
L 300 150 
L 300 250 
z
" transform="scale(0.015625)"/>
       </defs>
       <use xlink:href="#SimHei-31"/>
       <use xlink:href="#SimHei-32" x="50"/>
      </g>
     </g>
    </g>
    <g id="xtick_6">
     <g id="line2d_6">
      <g>
       <use xlink:href="#mba3c09c88a" x="316.949878" y="307.584" style="stroke: #000000; stroke-width: 0.8"/>
      </g>
     </g>
     <g id="text_6">
      <!-- 14 -->
      <g transform="translate(311.949878 321.459)scale(0.1 -0.1)">
       <use xlink:href="#SimHei-31"/>
       <use xlink:href="#SimHei-34" x="50"/>
      </g>
     </g>
    </g>
    <g id="xtick_7">
     <g id="line2d_7">
      <g>
       <use xlink:href="#mba3c09c88a" x="361.334892" y="307.584" style="stroke: #000000; stroke-width: 0.8"/>
      </g>
     </g>
     <g id="text_7">
      <!-- 16 -->
      <g transform="translate(356.334892 321.459)scale(0.1 -0.1)">
       <use xlink:href="#SimHei-31"/>
       <use xlink:href="#SimHei-36" x="50"/>
      </g>
     </g>
    </g>
    <g id="xtick_8">
     <g id="line2d_8">
      <g>
       <use xlink:href="#mba3c09c88a" x="405.719906" y="307.584" style="stroke: #000000; stroke-width: 0.8"/>
      </g>
     </g>
     <g id="text_8">
      <!-- 18 -->
      <g transform="translate(400.719906 321.459)scale(0.1 -0.1)">
       <use xlink:href="#SimHei-31"/>
       <use xlink:href="#SimHei-38" x="50"/>
      </g>
     </g>
    </g>
    <g id="text_9">
     <!-- 影响因素x -->
     <g transform="translate(213.66 334.67775)scale(0.1 -0.1)">
      <defs>
       <path id="SimHei-5f71" d="M 3550 5025 
Q 3500 4625 3512 4187 
Q 3525 3750 3550 3325 
L 775 3325 
Q 800 3750 787 4187 
Q 775 4625 775 5025 
L 3550 5025 
z
M 1450 -100 
Q 2050 -75 1975 200 
L 1975 1100 
L 775 1100 
Q 800 1375 787 1650 
Q 775 1925 775 2225 
L 3550 2225 
Q 3525 1925 3512 1650 
Q 3500 1375 3550 1100 
L 2475 1100 
L 2475 175 
Q 2500 -250 2300 -375 
Q 2100 -500 1625 -600 
Q 1575 -325 1450 -100 
z
M 2375 3250 
Q 2400 3075 2425 2875 
L 3175 2875 
Q 3600 2875 4050 2900 
L 4050 2475 
Q 3600 2500 3175 2500 
L 1200 2500 
Q 700 2500 275 2475 
L 275 2900 
Q 700 2875 1200 2875 
L 1900 2875 
Q 1875 3025 1850 3200 
Q 2100 3250 2375 3250 
z
M 6150 1350 
Q 5675 775 5000 225 
Q 4325 -325 3725 -650 
Q 3575 -400 3400 -250 
Q 3975 25 4600 500 
Q 5225 975 5775 1725 
Q 5950 1525 6150 1350 
z
M 5925 3125 
Q 5625 2850 5212 2362 
Q 4800 1875 4200 1425 
Q 4025 1625 3800 1725 
Q 4375 2050 4787 2525 
Q 5200 3000 5525 3500 
Q 5675 3325 5925 3125 
z
M 5725 4825 
Q 5325 4550 5037 4162 
Q 4750 3775 4175 3275 
Q 3975 3450 3800 3550 
Q 4175 3825 4550 4237 
Q 4925 4650 5225 5175 
Q 5425 5000 5725 4825 
z
M 3075 1475 
L 3075 1850 
L 1250 1850 
L 1250 1475 
L 3075 1475 
z
M 3075 3700 
L 3075 4000 
L 1250 4000 
L 1250 3700 
L 3075 3700 
z
M 3075 4375 
L 3075 4675 
L 1250 4675 
L 1250 4375 
L 3075 4375 
z
M 1500 500 
Q 1075 75 575 -325 
Q 475 -175 275 -25 
Q 700 250 1125 825 
Q 1300 625 1500 500 
z
M 3250 -50 
Q 3050 275 2750 550 
Q 2900 700 3075 850 
Q 3400 525 3600 250 
L 3250 -50 
z
" transform="scale(0.015625)"/>
       <path id="SimHei-54cd" d="M 4150 5125 
Q 4000 4975 3850 4325 
L 5875 4325 
Q 5850 3800 5850 3325 
L 5850 50 
Q 5825 -225 5625 -350 
Q 5425 -475 4850 -550 
Q 4850 -325 4600 25 
Q 5125 25 5237 62 
Q 5350 100 5350 225 
L 5350 3950 
L 2950 3950 
L 2950 -575 
L 2450 -575 
Q 2475 -75 2475 450 
L 2475 3125 
Q 2475 3750 2450 4325 
L 3350 4325 
Q 3475 4775 3525 5250 
Q 3950 5150 4150 5125 
z
M 4875 900 
L 3425 900 
L 3425 3100 
L 4875 3100 
L 4875 900 
z
M 4450 1275 
L 4450 2700 
L 3875 2700 
L 3875 1275 
L 4450 1275 
z
M 2075 4500 
Q 2050 3975 2050 3425 
L 2050 1750 
Q 2050 1250 2075 600 
L 1650 600 
L 1650 1050 
L 950 1050 
L 950 275 
L 500 275 
Q 525 750 525 1275 
L 525 3425 
Q 525 3975 500 4500 
L 2075 4500 
z
M 1650 1400 
L 1650 4125 
L 950 4125 
L 950 1400 
L 1650 1400 
z
" transform="scale(0.015625)"/>
       <path id="SimHei-56e0" d="M 5775 4950 
Q 5750 4325 5750 3600 
L 5750 850 
Q 5750 200 5775 -550 
L 5275 -550 
L 5275 -100 
L 1150 -100 
L 1150 -600 
L 650 -600 
Q 675 100 675 850 
L 675 3600 
Q 675 4275 650 4950 
L 5775 4950 
z
M 5275 325 
L 5275 4550 
L 1150 4550 
L 1150 325 
L 5275 325 
z
M 2975 3350 
Q 2975 3975 2950 4275 
Q 3225 4250 3525 4250 
Q 3450 3975 3450 3750 
L 3450 3350 
L 4025 3350 
Q 4425 3350 4950 3375 
L 4950 2900 
Q 4425 2925 4025 2925 
L 3425 2925 
Q 3400 2750 3325 2425 
Q 3625 2250 3975 1975 
Q 4325 1700 4900 1225 
Q 4700 1050 4475 800 
Q 4225 1100 3862 1450 
Q 3500 1800 3200 2025 
Q 3025 1700 2700 1375 
Q 2375 1050 1900 700 
Q 1750 925 1475 1075 
Q 2200 1400 2537 1875 
Q 2875 2350 2925 2925 
L 2475 2925 
Q 2025 2925 1525 2900 
L 1525 3375 
Q 2025 3350 2450 3350 
L 2975 3350 
z
" transform="scale(0.015625)"/>
       <path id="SimHei-7d20" d="M 2950 4650 
Q 2950 4775 2925 5125 
L 3450 5125 
Q 3425 4825 3425 4650 
L 4750 4650 
Q 5150 4650 5550 4675 
L 5550 4225 
Q 5150 4250 4775 4250 
L 3425 4250 
L 3425 3825 
L 4425 3825 
Q 4775 3825 5225 3850 
L 5225 3450 
Q 4800 3475 4425 3475 
L 3425 3475 
L 3425 3075 
L 5150 3075 
Q 5500 3075 5950 3100 
L 5950 2675 
Q 5500 2700 5150 2700 
L 3200 2700 
Q 2925 2475 2475 2200 
Q 3125 2225 3750 2250 
Q 4025 2350 4400 2650 
Q 4675 2450 4900 2300 
Q 4475 2150 3950 1875 
L 2825 1325 
Q 3725 1375 4825 1450 
Q 4700 1625 4550 1725 
Q 4750 1825 4925 1975 
Q 5525 1375 5800 1075 
Q 5575 925 5350 750 
Q 5200 1000 5100 1100 
Q 4025 1050 3550 1000 
L 3550 50 
Q 3575 -325 3350 -412 
Q 3125 -500 2675 -575 
Q 2600 -350 2425 -50 
Q 2750 -50 2912 -25 
Q 3075 0 3075 200 
L 3075 975 
Q 2725 950 2062 887 
Q 1400 825 1150 775 
Q 1100 1025 1000 1225 
Q 1375 1250 1712 1325 
Q 2050 1400 2375 1512 
Q 2700 1625 3125 1875 
Q 2475 1850 2187 1825 
Q 1900 1800 1525 1750 
Q 1475 2050 1375 2225 
Q 1750 2225 2012 2350 
Q 2275 2475 2525 2700 
L 1275 2700 
Q 875 2700 425 2675 
L 425 3100 
Q 875 3075 1250 3075 
L 2950 3075 
L 2950 3475 
L 1975 3475 
Q 1625 3475 1200 3450 
L 1200 3850 
Q 1625 3825 1950 3825 
L 2950 3825 
L 2950 4250 
L 1725 4250 
Q 1350 4250 900 4225 
L 900 4675 
Q 1350 4650 1725 4650 
L 2950 4650 
z
M 4375 750 
Q 5075 475 5875 100 
Q 5700 -125 5600 -375 
Q 4850 75 4150 350 
Q 4300 525 4375 750 
z
M 2375 400 
Q 2050 275 1662 50 
Q 1275 -175 800 -400 
Q 700 -175 450 25 
Q 900 150 1325 362 
Q 1750 575 2025 775 
Q 2200 550 2375 400 
z
" transform="scale(0.015625)"/>
       <path id="SimHei-78" d="M 2875 125 
L 2275 125 
L 1550 1200 
L 825 125 
L 225 125 
L 1250 1550 
L 300 2925 
L 900 2925 
L 1550 1875 
L 2200 2925 
L 2800 2925 
L 1850 1550 
L 2875 125 
z
" transform="scale(0.015625)"/>
      </defs>
      <use xlink:href="#SimHei-5f71"/>
      <use xlink:href="#SimHei-54cd" x="100"/>
      <use xlink:href="#SimHei-56e0" x="200"/>
      <use xlink:href="#SimHei-7d20" x="300"/>
      <use xlink:href="#SimHei-78" x="400"/>
     </g>
    </g>
   </g>
   <g id="matplotlib.axis_2">
    <g id="ytick_1">
     <g id="line2d_9">
      <defs>
       <path id="m0c9d845ac6" d="M 0 0 
L -3.5 0 
" style="stroke: #000000; stroke-width: 0.8"/>
      </defs>
      <g>
       <use xlink:href="#m0c9d845ac6" x="57.6" y="297.095439" style="stroke: #000000; stroke-width: 0.8"/>
      </g>
     </g>
     <g id="text_10">
      <!-- 0.0 -->
      <g transform="translate(35.6 300.532939)scale(0.1 -0.1)">
       <defs>
        <path id="SimHei-2e" d="M 1075 125 
L 500 125 
L 500 675 
L 1075 675 
L 1075 125 
z
" transform="scale(0.015625)"/>
       </defs>
       <use xlink:href="#SimHei-30"/>
       <use xlink:href="#SimHei-2e" x="50"/>
       <use xlink:href="#SimHei-30" x="100"/>
      </g>
     </g>
    </g>
    <g id="ytick_2">
     <g id="line2d_10">
      <g>
       <use xlink:href="#m0c9d845ac6" x="57.6" y="264.021623" style="stroke: #000000; stroke-width: 0.8"/>
      </g>
     </g>
     <g id="text_11">
      <!-- 2.5 -->
      <g transform="translate(35.6 267.459123)scale(0.1 -0.1)">
       <defs>
        <path id="SimHei-35" d="M 550 1325 
Q 725 650 1150 575 
Q 1575 500 1837 662 
Q 2100 825 2212 1087 
Q 2325 1350 2312 1675 
Q 2300 2000 2137 2225 
Q 1975 2450 1725 2525 
Q 1475 2600 1162 2525 
Q 850 2450 650 2175 
L 225 2225 
Q 275 2375 700 4375 
L 2675 4375 
L 2675 3925 
L 1075 3925 
Q 950 3250 825 2850 
Q 1200 3025 1525 3012 
Q 1850 3000 2150 2862 
Q 2450 2725 2587 2487 
Q 2725 2250 2787 2012 
Q 2850 1775 2837 1500 
Q 2825 1225 2725 937 
Q 2625 650 2425 462 
Q 2225 275 1937 162 
Q 1650 50 1275 75 
Q 900 100 562 350 
Q 225 600 100 1200 
L 550 1325 
z
" transform="scale(0.015625)"/>
       </defs>
       <use xlink:href="#SimHei-32"/>
       <use xlink:href="#SimHei-2e" x="50"/>
       <use xlink:href="#SimHei-35" x="100"/>
      </g>
     </g>
    </g>
    <g id="ytick_3">
     <g id="line2d_11">
      <g>
       <use xlink:href="#m0c9d845ac6" x="57.6" y="230.947808" style="stroke: #000000; stroke-width: 0.8"/>
      </g>
     </g>
     <g id="text_12">
      <!-- 5.0 -->
      <g transform="translate(35.6 234.385308)scale(0.1 -0.1)">
       <use xlink:href="#SimHei-35"/>
       <use xlink:href="#SimHei-2e" x="50"/>
       <use xlink:href="#SimHei-30" x="100"/>
      </g>
     </g>
    </g>
    <g id="ytick_4">
     <g id="line2d_12">
      <g>
       <use xlink:href="#m0c9d845ac6" x="57.6" y="197.873992" style="stroke: #000000; stroke-width: 0.8"/>
      </g>
     </g>
     <g id="text_13">
      <!-- 7.5 -->
      <g transform="translate(35.6 201.311492)scale(0.1 -0.1)">
       <defs>
        <path id="SimHei-37" d="M 850 150 
Q 1300 2050 2425 3925 
L 275 3925 
L 275 4375 
L 2950 4375 
L 2950 3950 
Q 1775 2050 1400 150 
L 850 150 
z
" transform="scale(0.015625)"/>
       </defs>
       <use xlink:href="#SimHei-37"/>
       <use xlink:href="#SimHei-2e" x="50"/>
       <use xlink:href="#SimHei-35" x="100"/>
      </g>
     </g>
    </g>
    <g id="ytick_5">
     <g id="line2d_13">
      <g>
       <use xlink:href="#m0c9d845ac6" x="57.6" y="164.800176" style="stroke: #000000; stroke-width: 0.8"/>
      </g>
     </g>
     <g id="text_14">
      <!-- 10.0 -->
      <g transform="translate(30.6 168.237676)scale(0.1 -0.1)">
       <use xlink:href="#SimHei-31"/>
       <use xlink:href="#SimHei-30" x="50"/>
       <use xlink:href="#SimHei-2e" x="100"/>
       <use xlink:href="#SimHei-30" x="150"/>
      </g>
     </g>
    </g>
    <g id="ytick_6">
     <g id="line2d_14">
      <g>
       <use xlink:href="#m0c9d845ac6" x="57.6" y="131.726361" style="stroke: #000000; stroke-width: 0.8"/>
      </g>
     </g>
     <g id="text_15">
      <!-- 12.5 -->
      <g transform="translate(30.6 135.163861)scale(0.1 -0.1)">
       <use xlink:href="#SimHei-31"/>
       <use xlink:href="#SimHei-32" x="50"/>
       <use xlink:href="#SimHei-2e" x="100"/>
       <use xlink:href="#SimHei-35" x="150"/>
      </g>
     </g>
    </g>
    <g id="ytick_7">
     <g id="line2d_15">
      <g>
       <use xlink:href="#m0c9d845ac6" x="57.6" y="98.652545" style="stroke: #000000; stroke-width: 0.8"/>
      </g>
     </g>
     <g id="text_16">
      <!-- 15.0 -->
      <g transform="translate(30.6 102.090045)scale(0.1 -0.1)">
       <use xlink:href="#SimHei-31"/>
       <use xlink:href="#SimHei-35" x="50"/>
       <use xlink:href="#SimHei-2e" x="100"/>
       <use xlink:href="#SimHei-30" x="150"/>
      </g>
     </g>
    </g>
    <g id="ytick_8">
     <g id="line2d_16">
      <g>
       <use xlink:href="#m0c9d845ac6" x="57.6" y="65.578729" style="stroke: #000000; stroke-width: 0.8"/>
      </g>
     </g>
     <g id="text_17">
      <!-- 17.5 -->
      <g transform="translate(30.6 69.016229)scale(0.1 -0.1)">
       <use xlink:href="#SimHei-31"/>
       <use xlink:href="#SimHei-37" x="50"/>
       <use xlink:href="#SimHei-2e" x="100"/>
       <use xlink:href="#SimHei-35" x="150"/>
      </g>
     </g>
    </g>
    <g id="text_18">
     <!-- 价格y -->
     <g transform="translate(25.35 187.028)rotate(-90)scale(0.1 -0.1)">
      <defs>
       <path id="SimHei-4ef7" d="M 2200 4975 
Q 2050 4725 1650 3775 
L 1650 450 
Q 1650 -225 1675 -650 
L 1175 -650 
Q 1175 -225 1200 450 
L 1200 2975 
Q 900 2425 650 2100 
Q 525 2275 225 2450 
Q 750 3025 1125 3800 
Q 1500 4575 1625 5175 
Q 1950 5025 2200 4975 
z
M 4175 4700 
Q 4850 3525 6150 2950 
Q 5925 2750 5775 2500 
Q 4725 3100 3950 4300 
Q 3300 3125 2250 2350 
Q 2125 2525 1900 2725 
Q 2825 3325 3250 4050 
Q 3675 4775 3750 5150 
Q 4150 4950 4325 4900 
L 4175 4700 
z
M 3475 2650 
Q 3400 2075 3325 1087 
Q 3250 100 2325 -675 
Q 2175 -450 1925 -300 
Q 2850 350 2912 1262 
Q 2975 2175 2950 2700 
Q 3275 2650 3475 2650 
z
M 5075 2700 
Q 5050 2150 5050 1725 
L 5050 150 
Q 5050 -225 5075 -650 
L 4550 -650 
Q 4575 -225 4575 175 
L 4575 1875 
Q 4575 2150 4550 2700 
L 5075 2700 
z
" transform="scale(0.015625)"/>
       <path id="SimHei-683c" d="M 4075 4875 
Q 3975 4750 3750 4350 
L 5625 4350 
Q 5450 3850 5212 3437 
Q 4975 3025 4650 2650 
Q 4950 2450 5412 2287 
Q 5875 2125 6150 2100 
Q 5975 1900 5875 1600 
Q 5550 1725 5125 1912 
Q 4700 2100 4300 2400 
Q 3925 2125 3537 1937 
Q 3150 1750 2575 1550 
Q 2475 1775 2300 1925 
Q 2825 2050 3262 2250 
Q 3700 2450 3975 2675 
Q 3625 3050 3325 3575 
Q 3175 3350 2875 2950 
Q 2700 3100 2475 3200 
Q 2825 3550 3112 4075 
Q 3400 4600 3550 5100 
Q 3775 4950 4075 4875 
z
M 5575 1650 
Q 5550 1350 5550 575 
Q 5550 -200 5575 -575 
L 5050 -575 
L 5050 -175 
L 3500 -175 
L 3500 -600 
L 2975 -600 
Q 3000 -200 3000 550 
Q 3000 1325 2975 1650 
L 5575 1650 
z
M 1850 5100 
Q 1825 4775 1825 4475 
L 1825 3825 
Q 2300 3825 2525 3850 
L 2525 3400 
Q 2300 3425 1825 3425 
L 1825 2725 
Q 1950 2800 2125 2950 
Q 2350 2600 2550 2200 
Q 2350 2075 2175 1950 
Q 1975 2375 1825 2625 
L 1825 275 
Q 1825 -275 1850 -625 
L 1350 -625 
Q 1375 -275 1375 275 
L 1375 2425 
Q 1150 1850 625 850 
Q 475 1025 250 1150 
Q 650 1775 900 2375 
Q 1150 2975 1250 3425 
Q 900 3425 475 3400 
L 475 3850 
Q 925 3825 1375 3825 
L 1375 4475 
Q 1375 4750 1350 5100 
L 1850 5100 
z
M 5050 200 
L 5050 1275 
L 3500 1275 
L 3500 200 
L 5050 200 
z
M 4300 2925 
Q 4675 3300 4975 3975 
L 3550 3975 
Q 3850 3350 4300 2925 
z
" transform="scale(0.015625)"/>
       <path id="SimHei-79" d="M 2900 2925 
L 1750 -100 
Q 1650 -450 1450 -625 
Q 1250 -800 950 -800 
Q 825 -800 712 -787 
Q 600 -775 500 -725 
L 500 -225 
Q 600 -275 700 -300 
Q 800 -325 875 -325 
Q 1075 -325 1150 -262 
Q 1225 -200 1300 25 
L 200 2925 
L 750 2925 
L 1550 725 
L 1575 725 
L 2350 2925 
L 2900 2925 
z
" transform="scale(0.015625)"/>
      </defs>
      <use xlink:href="#SimHei-4ef7"/>
      <use xlink:href="#SimHei-683c" x="100"/>
      <use xlink:href="#SimHei-79" x="200"/>
     </g>
    </g>
   </g>
   <g id="patch_3">
    <path d="M 57.6 307.584 
L 57.6 41.472 
" style="fill: none; stroke: #000000; stroke-width: 0.8; stroke-linejoin: miter; stroke-linecap: square"/>
   </g>
   <g id="patch_4">
    <path d="M 414.72 307.584 
L 414.72 41.472 
" style="fill: none; stroke: #000000; stroke-width: 0.8; stroke-linejoin: miter; stroke-linecap: square"/>
   </g>
   <g id="patch_5">
    <path d="M 57.6 307.584 
L 414.72 307.584 
" style="fill: none; stroke: #000000; stroke-width: 0.8; stroke-linejoin: miter; stroke-linecap: square"/>
   </g>
   <g id="patch_6">
    <path d="M 57.6 41.472 
L 414.72 41.472 
" style="fill: none; stroke: #000000; stroke-width: 0.8; stroke-linejoin: miter; stroke-linecap: square"/>
   </g>
   <g id="text_19">
    <!-- 训练集展示 -->
    <g transform="translate(206.16 35.472)scale(0.12 -0.12)">
     <defs>
      <path id="SimHei-8bad" d="M 1650 3300 
Q 1625 2725 1625 2225 
L 1625 675 
Q 1950 1125 2050 1275 
Q 2175 1125 2350 900 
Q 2025 500 1800 212 
Q 1575 -75 1325 -425 
Q 1150 -200 950 -50 
Q 1150 225 1150 625 
L 1150 2875 
L 975 2875 
Q 600 2875 300 2850 
L 300 3325 
Q 600 3300 975 3300 
L 1650 3300 
z
M 3425 4600 
Q 3375 4350 3387 3362 
Q 3400 2375 3337 1887 
Q 3275 1400 3087 837 
Q 2900 275 2450 -375 
Q 2225 -200 1975 -125 
Q 2550 500 2762 1362 
Q 2975 2225 2950 3337 
Q 2925 4450 2900 4675 
Q 3150 4625 3425 4600 
z
M 5875 4700 
Q 5850 4500 5850 3975 
L 5850 625 
Q 5850 125 5875 -400 
L 5400 -400 
Q 5425 125 5425 600 
L 5425 3975 
Q 5425 4500 5400 4700 
L 5875 4700 
z
M 4600 175 
L 4125 175 
Q 4150 725 4150 1150 
L 4150 3600 
Q 4150 4050 4125 4350 
L 4600 4350 
L 4600 175 
z
M 1000 5150 
Q 1650 4600 2100 4100 
Q 1875 3925 1750 3750 
Q 1050 4550 700 4800 
Q 850 4950 1000 5150 
z
" transform="scale(0.015625)"/>
      <path id="SimHei-7ec3" d="M 3300 3825 
Q 2950 3825 2400 3800 
L 2400 4250 
Q 2950 4225 3325 4225 
L 3625 4225 
Q 3875 4950 3900 5175 
Q 4200 5025 4450 4925 
Q 4350 4825 4262 4612 
Q 4175 4400 4100 4225 
L 5025 4225 
Q 5425 4225 5900 4250 
L 5900 3800 
Q 5550 3825 5025 3825 
L 3975 3825 
Q 3850 3525 3700 3150 
L 4675 3150 
Q 4650 2875 4650 2475 
L 4650 1975 
L 4975 1975 
Q 5350 1975 5800 2000 
L 5800 1550 
Q 5350 1575 4975 1575 
L 4650 1575 
L 4650 125 
Q 4650 -300 4462 -425 
Q 4275 -550 3650 -625 
Q 3625 -375 3450 -100 
Q 4075 -125 4137 -25 
Q 4200 75 4200 325 
L 4200 1575 
L 3425 1575 
Q 3250 1575 3100 1562 
Q 2950 1550 2750 1475 
Q 2650 1725 2550 1950 
Q 2800 2025 3125 2775 
Q 2950 2775 2450 2750 
L 2450 3175 
Q 3025 3150 3250 3150 
Q 3400 3525 3500 3825 
L 3300 3825 
z
M 1650 2950 
Q 1875 3300 2100 3900 
Q 2325 3725 2575 3600 
Q 2325 3275 2025 2750 
Q 1725 2225 1075 1350 
Q 1300 1400 2400 1575 
Q 2350 1300 2375 1150 
Q 1825 1100 650 825 
Q 525 1075 400 1275 
Q 625 1400 887 1737 
Q 1150 2075 1450 2575 
Q 1300 2600 1012 2562 
Q 725 2525 450 2450 
Q 350 2675 250 2925 
Q 500 3075 812 3725 
Q 1125 4375 1325 5000 
Q 1600 4825 1850 4750 
Q 1600 4375 1387 3962 
Q 1175 3550 800 2925 
Q 1375 2925 1650 2950 
z
M 2425 700 
Q 2400 425 2425 250 
Q 2000 150 1462 -25 
Q 925 -200 475 -425 
Q 400 -150 300 125 
Q 950 275 1187 337 
Q 1425 400 2425 700 
z
M 3725 875 
Q 3650 800 3287 400 
Q 2925 0 2475 -475 
Q 2300 -250 2150 -125 
Q 2425 100 2750 462 
Q 3075 825 3325 1225 
Q 3475 1050 3725 875 
z
M 5275 1225 
Q 5925 375 6200 -100 
Q 5950 -200 5750 -375 
Q 5475 175 4900 950 
Q 5075 1050 5275 1225 
z
M 4200 1975 
L 4200 2775 
L 3575 2775 
Q 3325 2250 3175 1975 
L 4200 1975 
z
" transform="scale(0.015625)"/>
      <path id="SimHei-96c6" d="M 2275 4925 
Q 2125 4800 2025 4662 
Q 1925 4525 1850 4350 
L 4925 4350 
Q 5300 4350 5750 4375 
L 5750 3975 
L 3650 3975 
L 3650 3575 
L 4625 3575 
Q 4925 3575 5325 3600 
L 5325 3175 
Q 4925 3200 4625 3200 
L 3650 3200 
L 3650 2800 
L 4675 2800 
Q 5000 2800 5425 2825 
L 5425 2400 
Q 5000 2425 4675 2425 
L 3650 2425 
L 3650 2075 
L 4875 2075 
Q 5275 2075 5675 2100 
L 5675 1675 
Q 5300 1700 4900 1700 
L 1650 1700 
L 1650 1500 
L 1150 1500 
Q 1200 1950 1200 2325 
L 1200 3475 
Q 1050 3250 937 3125 
Q 825 3000 675 2825 
Q 500 3000 300 3125 
Q 475 3325 875 3825 
Q 1275 4325 1462 4650 
Q 1650 4975 1725 5225 
Q 1950 5100 2275 4925 
z
M 2975 1200 
Q 2975 1300 2950 1625 
L 3475 1625 
Q 3450 1275 3450 1200 
L 5050 1200 
Q 5500 1200 5925 1225 
L 5925 825 
L 4150 825 
Q 4500 525 4925 362 
Q 5350 200 6100 25 
Q 5875 -225 5775 -475 
Q 5275 -300 4962 -162 
Q 4650 -25 4387 137 
Q 4125 300 3950 462 
Q 3775 625 3575 825 
L 3450 825 
L 3450 250 
Q 3450 -275 3500 -650 
L 2950 -650 
Q 2975 -300 2975 250 
L 2975 825 
L 2875 825 
Q 2700 575 2475 375 
Q 2250 175 1987 12 
Q 1725 -150 1425 -300 
Q 1125 -450 700 -575 
Q 600 -325 400 -75 
Q 925 50 1475 262 
Q 2025 475 2300 825 
L 500 825 
L 500 1225 
Q 800 1200 1400 1200 
L 2975 1200 
z
M 3150 2800 
L 3150 3200 
L 1650 3200 
L 1650 2800 
L 3150 2800 
z
M 3150 3575 
L 3150 3975 
L 1650 3975 
L 1650 3575 
L 3150 3575 
z
M 3150 2075 
L 3150 2425 
L 1650 2425 
L 1650 2075 
L 3150 2075 
z
M 3450 5250 
Q 3575 5150 3712 5000 
Q 3850 4850 4000 4650 
Q 3850 4525 3575 4375 
Q 3425 4575 3325 4700 
Q 3225 4825 3075 4950 
Q 3275 5075 3450 5250 
z
" transform="scale(0.015625)"/>
      <path id="SimHei-5c55" d="M 5450 5000 
Q 5425 4625 5425 4275 
Q 5425 3925 5450 3575 
L 4375 3575 
L 4375 2975 
L 4800 2975 
Q 5050 2975 5400 3000 
L 5400 2550 
Q 4975 2575 4825 2575 
L 4375 2575 
L 4375 1975 
L 5275 1975 
Q 5500 1975 5900 2000 
L 5900 1550 
Q 5500 1575 5300 1575 
L 3725 1575 
Q 3900 975 4325 625 
Q 4725 1050 4975 1475 
Q 5175 1325 5450 1175 
Q 5225 1025 4625 375 
Q 5200 -25 6025 -150 
Q 5825 -325 5700 -625 
Q 5000 -400 4562 -150 
Q 4125 100 3800 500 
Q 3475 900 3275 1575 
L 2600 1575 
L 2600 150 
Q 3125 450 3300 600 
Q 3350 325 3450 100 
Q 3300 25 2937 -200 
Q 2575 -425 2300 -675 
Q 2125 -425 1975 -250 
Q 2150 -50 2150 300 
L 2150 1575 
L 1350 1575 
Q 1275 800 1087 225 
Q 900 -350 725 -625 
Q 525 -450 325 -350 
Q 550 75 687 525 
Q 825 975 875 1475 
Q 925 1975 912 2587 
Q 900 3200 900 3650 
Q 900 4125 875 5000 
L 5450 5000 
z
M 4975 3975 
L 4975 4575 
L 1350 4575 
L 1350 3975 
L 4975 3975 
z
M 2500 1975 
L 2500 2575 
L 2250 2575 
Q 2025 2575 1625 2550 
L 1625 3000 
Q 2025 2975 2250 2975 
L 2500 2975 
L 2500 3575 
L 1350 3575 
L 1350 1975 
L 2500 1975 
z
M 3925 2975 
L 3925 3575 
L 2950 3575 
L 2950 2975 
L 3925 2975 
z
M 3925 1975 
L 3925 2575 
L 2950 2575 
L 2950 1975 
L 3925 1975 
z
" transform="scale(0.015625)"/>
      <path id="SimHei-793a" d="M 5175 3050 
Q 5500 3050 5975 3075 
L 5975 2575 
Q 5500 2625 5150 2625 
L 3500 2625 
L 3500 -75 
Q 3500 -350 3212 -487 
Q 2925 -625 2425 -675 
Q 2400 -425 2175 -100 
Q 2625 -125 2825 -87 
Q 3025 -50 3025 175 
L 3025 2625 
L 1400 2625 
Q 900 2625 500 2600 
L 500 3075 
Q 925 3050 1400 3050 
L 5175 3050 
z
M 4425 4775 
Q 4775 4775 5225 4800 
L 5225 4325 
Q 4775 4350 4425 4350 
L 2125 4350 
Q 1600 4350 1200 4325 
L 1200 4800 
Q 1600 4775 2125 4775 
L 4425 4775 
z
M 2225 1825 
Q 1950 1400 1650 900 
Q 1350 400 975 -125 
Q 775 75 500 150 
Q 900 600 1200 1087 
Q 1500 1575 1725 2075 
Q 1975 1925 2225 1825 
z
M 4500 2025 
Q 5450 925 5925 275 
Q 5650 125 5475 -25 
Q 5100 550 4125 1750 
Q 4325 1850 4500 2025 
z
" transform="scale(0.015625)"/>
     </defs>
     <use xlink:href="#SimHei-8bad"/>
     <use xlink:href="#SimHei-7ec3" x="100"/>
     <use xlink:href="#SimHei-96c6" x="200"/>
     <use xlink:href="#SimHei-5c55" x="300"/>
     <use xlink:href="#SimHei-793a" x="400"/>
    </g>
   </g>
  </g>
 </g>
 <defs>
  <clipPath id="p11d07fb660">
   <rect x="57.6" y="41.472" width="357.12" height="266.112"/>
  </clipPath>
 </defs>
</svg>
