<?xml version="1.0" encoding="utf-8" standalone="no"?>
<!DOCTYPE svg PUBLIC "-//W3C//DTD SVG 1.1//EN"
  "http://www.w3.org/Graphics/SVG/1.1/DTD/svg11.dtd">
<svg xmlns:xlink="http://www.w3.org/1999/xlink" width="460.8pt" height="345.6pt" viewBox="0 0 460.8 345.6" xmlns="http://www.w3.org/2000/svg" version="1.1">
 <metadata>
  <rdf:RDF xmlns:dc="http://purl.org/dc/elements/1.1/" xmlns:cc="http://creativecommons.org/ns#" xmlns:rdf="http://www.w3.org/1999/02/22-rdf-syntax-ns#">
   <cc:Work>
    <dc:type rdf:resource="http://purl.org/dc/dcmitype/StillImage"/>
    <dc:date>2022-04-10T17:37:50.093363</dc:date>
    <dc:format>image/svg+xml</dc:format>
    <dc:creator>
     <cc:Agent>
      <dc:title>Matplotlib v3.5.1, https://matplotlib.org/</dc:title>
     </cc:Agent>
    </dc:creator>
   </cc:Work>
  </rdf:RDF>
 </metadata>
 <defs>
  <style type="text/css">*{stroke-linejoin: round; stroke-linecap: butt}</style>
 </defs>
 <g id="figure_1">
  <g id="patch_1">
   <path d="M 0 345.6 
L 460.8 345.6 
L 460.8 0 
L 0 0 
z
" style="fill: #ffffff"/>
  </g>
  <g id="axes_1">
   <g id="patch_2">
    <path d="M 57.6 307.584 
L 414.72 307.584 
L 414.72 41.472 
L 57.6 41.472 
z
" style="fill: #ffffff"/>
   </g>
   <g id="PathCollection_1">
    <defs>
     <path id="md20f6581b5" d="M 0 1.936492 
C 0.513564 1.936492 1.006162 1.732451 1.369306 1.369306 
C 1.732451 1.006162 1.936492 0.513564 1.936492 0 
C 1.936492 -0.513564 1.732451 -1.006162 1.369306 -1.369306 
C 1.006162 -1.732451 0.513564 -1.936492 0 -1.936492 
C -0.513564 -1.936492 -1.006162 -1.732451 -1.369306 -1.369306 
C -1.732451 -1.006162 -1.936492 -0.513564 -1.936492 0 
C -1.936492 0.513564 -1.732451 1.006162 -1.369306 1.369306 
C -1.006162 1.732451 -0.513564 1.936492 0 1.936492 
z
" style="stroke: #ff0000"/>
    </defs>
    <g clip-path="url(#p8a3bb70bd5)">
     <use xlink:href="#md20f6581b5" x="73.832727" y="295.488" style="fill: #ff0000; stroke: #ff0000"/>
     <use xlink:href="#md20f6581b5" x="81.795109" y="279.716877" style="fill: #ff0000; stroke: #ff0000"/>
     <use xlink:href="#md20f6581b5" x="80.470306" y="283.416392" style="fill: #ff0000; stroke: #ff0000"/>
     <use xlink:href="#md20f6581b5" x="83.104334" y="273.098981" style="fill: #ff0000; stroke: #ff0000"/>
     <use xlink:href="#md20f6581b5" x="78.548368" y="279.148126" style="fill: #ff0000; stroke: #ff0000"/>
     <use xlink:href="#md20f6581b5" x="95.129669" y="256.490294" style="fill: #ff0000; stroke: #ff0000"/>
     <use xlink:href="#md20f6581b5" x="96.988865" y="253.890927" style="fill: #ff0000; stroke: #ff0000"/>
     <use xlink:href="#md20f6581b5" x="87.588133" y="263.082969" style="fill: #ff0000; stroke: #ff0000"/>
     <use xlink:href="#md20f6581b5" x="97.605584" y="255.654392" style="fill: #ff0000; stroke: #ff0000"/>
     <use xlink:href="#md20f6581b5" x="95.748204" y="258.868782" style="fill: #ff0000; stroke: #ff0000"/>
     <use xlink:href="#md20f6581b5" x="94.852485" y="260.644913" style="fill: #ff0000; stroke: #ff0000"/>
     <use xlink:href="#md20f6581b5" x="99.182228" y="248.832511" style="fill: #ff0000; stroke: #ff0000"/>
     <use xlink:href="#md20f6581b5" x="96.278039" y="249.548898" style="fill: #ff0000; stroke: #ff0000"/>
     <use xlink:href="#md20f6581b5" x="110.013925" y="235.500003" style="fill: #ff0000; stroke: #ff0000"/>
     <use xlink:href="#md20f6581b5" x="103.741877" y="241.302518" style="fill: #ff0000; stroke: #ff0000"/>
     <use xlink:href="#md20f6581b5" x="113.98246" y="228.95674" style="fill: #ff0000; stroke: #ff0000"/>
     <use xlink:href="#md20f6581b5" x="99.675847" y="248.003354" style="fill: #ff0000; stroke: #ff0000"/>
     <use xlink:href="#md20f6581b5" x="115.703874" y="238.42951" style="fill: #ff0000; stroke: #ff0000"/>
     <use xlink:href="#md20f6581b5" x="104.081556" y="239.082236" style="fill: #ff0000; stroke: #ff0000"/>
     <use xlink:href="#md20f6581b5" x="104.935469" y="251.578164" style="fill: #ff0000; stroke: #ff0000"/>
     <use xlink:href="#md20f6581b5" x="112.75453" y="239.526649" style="fill: #ff0000; stroke: #ff0000"/>
     <use xlink:href="#md20f6581b5" x="114.71301" y="227.368698" style="fill: #ff0000; stroke: #ff0000"/>
     <use xlink:href="#md20f6581b5" x="118.754579" y="230.340411" style="fill: #ff0000; stroke: #ff0000"/>
     <use xlink:href="#md20f6581b5" x="119.03193" y="226.154745" style="fill: #ff0000; stroke: #ff0000"/>
     <use xlink:href="#md20f6581b5" x="116.809515" y="226.12128" style="fill: #ff0000; stroke: #ff0000"/>
     <use xlink:href="#md20f6581b5" x="115.273468" y="235.31008" style="fill: #ff0000; stroke: #ff0000"/>
     <use xlink:href="#md20f6581b5" x="125.288474" y="226.945417" style="fill: #ff0000; stroke: #ff0000"/>
     <use xlink:href="#md20f6581b5" x="122.611749" y="217.075286" style="fill: #ff0000; stroke: #ff0000"/>
     <use xlink:href="#md20f6581b5" x="129.522988" y="220.550687" style="fill: #ff0000; stroke: #ff0000"/>
     <use xlink:href="#md20f6581b5" x="131.731719" y="225.124127" style="fill: #ff0000; stroke: #ff0000"/>
     <use xlink:href="#md20f6581b5" x="130.360841" y="212.175169" style="fill: #ff0000; stroke: #ff0000"/>
     <use xlink:href="#md20f6581b5" x="132.371794" y="211.893132" style="fill: #ff0000; stroke: #ff0000"/>
     <use xlink:href="#md20f6581b5" x="137.300829" y="215.321087" style="fill: #ff0000; stroke: #ff0000"/>
     <use xlink:href="#md20f6581b5" x="144.375599" y="210.47958" style="fill: #ff0000; stroke: #ff0000"/>
     <use xlink:href="#md20f6581b5" x="132.612819" y="205.615437" style="fill: #ff0000; stroke: #ff0000"/>
     <use xlink:href="#md20f6581b5" x="144.572226" y="201.773458" style="fill: #ff0000; stroke: #ff0000"/>
     <use xlink:href="#md20f6581b5" x="139.006284" y="219.657147" style="fill: #ff0000; stroke: #ff0000"/>
     <use xlink:href="#md20f6581b5" x="141.152453" y="207.817678" style="fill: #ff0000; stroke: #ff0000"/>
     <use xlink:href="#md20f6581b5" x="139.460979" y="208.222904" style="fill: #ff0000; stroke: #ff0000"/>
     <use xlink:href="#md20f6581b5" x="144.433169" y="212.959235" style="fill: #ff0000; stroke: #ff0000"/>
     <use xlink:href="#md20f6581b5" x="150.065033" y="192.186863" style="fill: #ff0000; stroke: #ff0000"/>
     <use xlink:href="#md20f6581b5" x="157.28138" y="190.101395" style="fill: #ff0000; stroke: #ff0000"/>
     <use xlink:href="#md20f6581b5" x="158.677351" y="187.45003" style="fill: #ff0000; stroke: #ff0000"/>
     <use xlink:href="#md20f6581b5" x="154.686648" y="188.38909" style="fill: #ff0000; stroke: #ff0000"/>
     <use xlink:href="#md20f6581b5" x="162.651952" y="201.502976" style="fill: #ff0000; stroke: #ff0000"/>
     <use xlink:href="#md20f6581b5" x="157.044552" y="207.315966" style="fill: #ff0000; stroke: #ff0000"/>
     <use xlink:href="#md20f6581b5" x="160.897219" y="184.471693" style="fill: #ff0000; stroke: #ff0000"/>
     <use xlink:href="#md20f6581b5" x="169.535311" y="177.48575" style="fill: #ff0000; stroke: #ff0000"/>
     <use xlink:href="#md20f6581b5" x="158.939805" y="194.714123" style="fill: #ff0000; stroke: #ff0000"/>
     <use xlink:href="#md20f6581b5" x="160.785001" y="189.454065" style="fill: #ff0000; stroke: #ff0000"/>
     <use xlink:href="#md20f6581b5" x="173.618238" y="186.36169" style="fill: #ff0000; stroke: #ff0000"/>
     <use xlink:href="#md20f6581b5" x="176.370519" y="183.572452" style="fill: #ff0000; stroke: #ff0000"/>
     <use xlink:href="#md20f6581b5" x="167.931502" y="198.029417" style="fill: #ff0000; stroke: #ff0000"/>
     <use xlink:href="#md20f6581b5" x="177.170688" y="169.965012" style="fill: #ff0000; stroke: #ff0000"/>
     <use xlink:href="#md20f6581b5" x="170.848983" y="188.722873" style="fill: #ff0000; stroke: #ff0000"/>
     <use xlink:href="#md20f6581b5" x="167.202683" y="175.561504" style="fill: #ff0000; stroke: #ff0000"/>
     <use xlink:href="#md20f6581b5" x="185.177334" y="194.245229" style="fill: #ff0000; stroke: #ff0000"/>
     <use xlink:href="#md20f6581b5" x="179.949279" y="182.049157" style="fill: #ff0000; stroke: #ff0000"/>
     <use xlink:href="#md20f6581b5" x="176.659119" y="167.220551" style="fill: #ff0000; stroke: #ff0000"/>
     <use xlink:href="#md20f6581b5" x="184.134562" y="173.322822" style="fill: #ff0000; stroke: #ff0000"/>
     <use xlink:href="#md20f6581b5" x="192.455321" y="189.465522" style="fill: #ff0000; stroke: #ff0000"/>
     <use xlink:href="#md20f6581b5" x="189.617317" y="188.211387" style="fill: #ff0000; stroke: #ff0000"/>
     <use xlink:href="#md20f6581b5" x="188.767439" y="190.15226" style="fill: #ff0000; stroke: #ff0000"/>
     <use xlink:href="#md20f6581b5" x="183.798965" y="176.137794" style="fill: #ff0000; stroke: #ff0000"/>
     <use xlink:href="#md20f6581b5" x="186.340866" y="169.61645" style="fill: #ff0000; stroke: #ff0000"/>
     <use xlink:href="#md20f6581b5" x="194.330559" y="189.669935" style="fill: #ff0000; stroke: #ff0000"/>
     <use xlink:href="#md20f6581b5" x="195.212334" y="187.543619" style="fill: #ff0000; stroke: #ff0000"/>
     <use xlink:href="#md20f6581b5" x="189.307903" y="160.301823" style="fill: #ff0000; stroke: #ff0000"/>
     <use xlink:href="#md20f6581b5" x="196.057137" y="185.371412" style="fill: #ff0000; stroke: #ff0000"/>
     <use xlink:href="#md20f6581b5" x="200.811666" y="164.405324" style="fill: #ff0000; stroke: #ff0000"/>
     <use xlink:href="#md20f6581b5" x="206.177838" y="152.201677" style="fill: #ff0000; stroke: #ff0000"/>
     <use xlink:href="#md20f6581b5" x="208.076855" y="151.011996" style="fill: #ff0000; stroke: #ff0000"/>
     <use xlink:href="#md20f6581b5" x="196.986355" y="165.197029" style="fill: #ff0000; stroke: #ff0000"/>
     <use xlink:href="#md20f6581b5" x="205.156653" y="152.059852" style="fill: #ff0000; stroke: #ff0000"/>
     <use xlink:href="#md20f6581b5" x="213.790955" y="149.180173" style="fill: #ff0000; stroke: #ff0000"/>
     <use xlink:href="#md20f6581b5" x="212.095254" y="146.414926" style="fill: #ff0000; stroke: #ff0000"/>
     <use xlink:href="#md20f6581b5" x="215.16305" y="166.633577" style="fill: #ff0000; stroke: #ff0000"/>
     <use xlink:href="#md20f6581b5" x="216.871096" y="173.939257" style="fill: #ff0000; stroke: #ff0000"/>
     <use xlink:href="#md20f6581b5" x="210.429333" y="170.965231" style="fill: #ff0000; stroke: #ff0000"/>
     <use xlink:href="#md20f6581b5" x="223.189462" y="139.002853" style="fill: #ff0000; stroke: #ff0000"/>
     <use xlink:href="#md20f6581b5" x="212.407537" y="149.597478" style="fill: #ff0000; stroke: #ff0000"/>
     <use xlink:href="#md20f6581b5" x="222.128334" y="177.941279" style="fill: #ff0000; stroke: #ff0000"/>
     <use xlink:href="#md20f6581b5" x="217.634034" y="161.215707" style="fill: #ff0000; stroke: #ff0000"/>
     <use xlink:href="#md20f6581b5" x="220.598657" y="161.684904" style="fill: #ff0000; stroke: #ff0000"/>
     <use xlink:href="#md20f6581b5" x="231.269336" y="141.359132" style="fill: #ff0000; stroke: #ff0000"/>
     <use xlink:href="#md20f6581b5" x="229.250088" y="166.500175" style="fill: #ff0000; stroke: #ff0000"/>
     <use xlink:href="#md20f6581b5" x="230.29195" y="170.616542" style="fill: #ff0000; stroke: #ff0000"/>
     <use xlink:href="#md20f6581b5" x="227.799412" y="148.680965" style="fill: #ff0000; stroke: #ff0000"/>
     <use xlink:href="#md20f6581b5" x="227.988593" y="148.271498" style="fill: #ff0000; stroke: #ff0000"/>
     <use xlink:href="#md20f6581b5" x="241.79674" y="156.952113" style="fill: #ff0000; stroke: #ff0000"/>
     <use xlink:href="#md20f6581b5" x="238.365544" y="132.429268" style="fill: #ff0000; stroke: #ff0000"/>
     <use xlink:href="#md20f6581b5" x="243.044857" y="156.547142" style="fill: #ff0000; stroke: #ff0000"/>
     <use xlink:href="#md20f6581b5" x="242.492052" y="130.243192" style="fill: #ff0000; stroke: #ff0000"/>
     <use xlink:href="#md20f6581b5" x="236.800303" y="170.978923" style="fill: #ff0000; stroke: #ff0000"/>
     <use xlink:href="#md20f6581b5" x="235.923513" y="135.271661" style="fill: #ff0000; stroke: #ff0000"/>
     <use xlink:href="#md20f6581b5" x="246.094815" y="138.067718" style="fill: #ff0000; stroke: #ff0000"/>
     <use xlink:href="#md20f6581b5" x="252.840216" y="153.26663" style="fill: #ff0000; stroke: #ff0000"/>
     <use xlink:href="#md20f6581b5" x="243.738109" y="168.621889" style="fill: #ff0000; stroke: #ff0000"/>
     <use xlink:href="#md20f6581b5" x="255.725097" y="122.297124" style="fill: #ff0000; stroke: #ff0000"/>
     <use xlink:href="#md20f6581b5" x="248.756951" y="161.577953" style="fill: #ff0000; stroke: #ff0000"/>
     <use xlink:href="#md20f6581b5" x="248.185028" y="123.720824" style="fill: #ff0000; stroke: #ff0000"/>
     <use xlink:href="#md20f6581b5" x="254.946074" y="139.469431" style="fill: #ff0000; stroke: #ff0000"/>
     <use xlink:href="#md20f6581b5" x="257.613114" y="116.573199" style="fill: #ff0000; stroke: #ff0000"/>
     <use xlink:href="#md20f6581b5" x="265.962007" y="112.828663" style="fill: #ff0000; stroke: #ff0000"/>
     <use xlink:href="#md20f6581b5" x="256.47664" y="136.410058" style="fill: #ff0000; stroke: #ff0000"/>
     <use xlink:href="#md20f6581b5" x="270.506466" y="128.140591" style="fill: #ff0000; stroke: #ff0000"/>
     <use xlink:href="#md20f6581b5" x="265.846131" y="158.88534" style="fill: #ff0000; stroke: #ff0000"/>
     <use xlink:href="#md20f6581b5" x="264.930346" y="123.40116" style="fill: #ff0000; stroke: #ff0000"/>
     <use xlink:href="#md20f6581b5" x="270.709981" y="139.56915" style="fill: #ff0000; stroke: #ff0000"/>
     <use xlink:href="#md20f6581b5" x="278.267506" y="141.067468" style="fill: #ff0000; stroke: #ff0000"/>
     <use xlink:href="#md20f6581b5" x="270.632537" y="128.34571" style="fill: #ff0000; stroke: #ff0000"/>
     <use xlink:href="#md20f6581b5" x="281.808675" y="110.86952" style="fill: #ff0000; stroke: #ff0000"/>
     <use xlink:href="#md20f6581b5" x="275.013389" y="154.917306" style="fill: #ff0000; stroke: #ff0000"/>
     <use xlink:href="#md20f6581b5" x="275.031192" y="137.471872" style="fill: #ff0000; stroke: #ff0000"/>
     <use xlink:href="#md20f6581b5" x="277.896459" y="104.979396" style="fill: #ff0000; stroke: #ff0000"/>
     <use xlink:href="#md20f6581b5" x="274.819485" y="114.88036" style="fill: #ff0000; stroke: #ff0000"/>
     <use xlink:href="#md20f6581b5" x="275.500634" y="136.932271" style="fill: #ff0000; stroke: #ff0000"/>
     <use xlink:href="#md20f6581b5" x="276.126867" y="152.584995" style="fill: #ff0000; stroke: #ff0000"/>
     <use xlink:href="#md20f6581b5" x="288.982128" y="124.353236" style="fill: #ff0000; stroke: #ff0000"/>
     <use xlink:href="#md20f6581b5" x="287.335745" y="141.129534" style="fill: #ff0000; stroke: #ff0000"/>
     <use xlink:href="#md20f6581b5" x="294.515706" y="126.764346" style="fill: #ff0000; stroke: #ff0000"/>
     <use xlink:href="#md20f6581b5" x="291.410413" y="137.307467" style="fill: #ff0000; stroke: #ff0000"/>
     <use xlink:href="#md20f6581b5" x="291.213536" y="143.117873" style="fill: #ff0000; stroke: #ff0000"/>
     <use xlink:href="#md20f6581b5" x="300.132499" y="100.973485" style="fill: #ff0000; stroke: #ff0000"/>
     <use xlink:href="#md20f6581b5" x="287.663412" y="114.816373" style="fill: #ff0000; stroke: #ff0000"/>
     <use xlink:href="#md20f6581b5" x="302.279784" y="122.25241" style="fill: #ff0000; stroke: #ff0000"/>
     <use xlink:href="#md20f6581b5" x="301.740282" y="133.608299" style="fill: #ff0000; stroke: #ff0000"/>
     <use xlink:href="#md20f6581b5" x="295.08786" y="151.18666" style="fill: #ff0000; stroke: #ff0000"/>
     <use xlink:href="#md20f6581b5" x="305.138746" y="138.70315" style="fill: #ff0000; stroke: #ff0000"/>
     <use xlink:href="#md20f6581b5" x="298.354564" y="94.260227" style="fill: #ff0000; stroke: #ff0000"/>
     <use xlink:href="#md20f6581b5" x="308.235872" y="97.352965" style="fill: #ff0000; stroke: #ff0000"/>
     <use xlink:href="#md20f6581b5" x="303.416183" y="139.382359" style="fill: #ff0000; stroke: #ff0000"/>
     <use xlink:href="#md20f6581b5" x="302.81038" y="151.6353" style="fill: #ff0000; stroke: #ff0000"/>
     <use xlink:href="#md20f6581b5" x="305.398566" y="125.183398" style="fill: #ff0000; stroke: #ff0000"/>
     <use xlink:href="#md20f6581b5" x="305.756438" y="114.680704" style="fill: #ff0000; stroke: #ff0000"/>
     <use xlink:href="#md20f6581b5" x="317.875967" y="103.192728" style="fill: #ff0000; stroke: #ff0000"/>
     <use xlink:href="#md20f6581b5" x="311.706553" y="135.75533" style="fill: #ff0000; stroke: #ff0000"/>
     <use xlink:href="#md20f6581b5" x="327.154109" y="104.096156" style="fill: #ff0000; stroke: #ff0000"/>
     <use xlink:href="#md20f6581b5" x="320.144714" y="120.700517" style="fill: #ff0000; stroke: #ff0000"/>
     <use xlink:href="#md20f6581b5" x="322.394629" y="126.432618" style="fill: #ff0000; stroke: #ff0000"/>
     <use xlink:href="#md20f6581b5" x="329.990344" y="134.862257" style="fill: #ff0000; stroke: #ff0000"/>
     <use xlink:href="#md20f6581b5" x="323.977408" y="97.375151" style="fill: #ff0000; stroke: #ff0000"/>
     <use xlink:href="#md20f6581b5" x="323.254115" y="138.171063" style="fill: #ff0000; stroke: #ff0000"/>
     <use xlink:href="#md20f6581b5" x="329.997186" y="133.526982" style="fill: #ff0000; stroke: #ff0000"/>
     <use xlink:href="#md20f6581b5" x="328.43301" y="90.951073" style="fill: #ff0000; stroke: #ff0000"/>
     <use xlink:href="#md20f6581b5" x="329.073765" y="110.497518" style="fill: #ff0000; stroke: #ff0000"/>
     <use xlink:href="#md20f6581b5" x="338.3802" y="110.285388" style="fill: #ff0000; stroke: #ff0000"/>
     <use xlink:href="#md20f6581b5" x="329.604482" y="108.312376" style="fill: #ff0000; stroke: #ff0000"/>
     <use xlink:href="#md20f6581b5" x="331.329999" y="77.148127" style="fill: #ff0000; stroke: #ff0000"/>
     <use xlink:href="#md20f6581b5" x="343.499765" y="85.225407" style="fill: #ff0000; stroke: #ff0000"/>
     <use xlink:href="#md20f6581b5" x="347.50928" y="135.569925" style="fill: #ff0000; stroke: #ff0000"/>
     <use xlink:href="#md20f6581b5" x="339.116883" y="90.068287" style="fill: #ff0000; stroke: #ff0000"/>
     <use xlink:href="#md20f6581b5" x="350.548365" y="74.852418" style="fill: #ff0000; stroke: #ff0000"/>
     <use xlink:href="#md20f6581b5" x="351.7324" y="136.958436" style="fill: #ff0000; stroke: #ff0000"/>
     <use xlink:href="#md20f6581b5" x="341.972682" y="113.758586" style="fill: #ff0000; stroke: #ff0000"/>
     <use xlink:href="#md20f6581b5" x="356.884078" y="90.878625" style="fill: #ff0000; stroke: #ff0000"/>
     <use xlink:href="#md20f6581b5" x="354.089459" y="94.800435" style="fill: #ff0000; stroke: #ff0000"/>
     <use xlink:href="#md20f6581b5" x="357.148123" y="132.646161" style="fill: #ff0000; stroke: #ff0000"/>
     <use xlink:href="#md20f6581b5" x="357.156418" y="134.751163" style="fill: #ff0000; stroke: #ff0000"/>
     <use xlink:href="#md20f6581b5" x="348.560528" y="98.753143" style="fill: #ff0000; stroke: #ff0000"/>
     <use xlink:href="#md20f6581b5" x="359.050297" y="134.157582" style="fill: #ff0000; stroke: #ff0000"/>
     <use xlink:href="#md20f6581b5" x="351.992297" y="70.043273" style="fill: #ff0000; stroke: #ff0000"/>
     <use xlink:href="#md20f6581b5" x="369.835395" y="104.52415" style="fill: #ff0000; stroke: #ff0000"/>
     <use xlink:href="#md20f6581b5" x="367.940288" y="129.270988" style="fill: #ff0000; stroke: #ff0000"/>
     <use xlink:href="#md20f6581b5" x="363.194208" y="93.708442" style="fill: #ff0000; stroke: #ff0000"/>
     <use xlink:href="#md20f6581b5" x="372.684628" y="79.615137" style="fill: #ff0000; stroke: #ff0000"/>
     <use xlink:href="#md20f6581b5" x="370.779546" y="68.841078" style="fill: #ff0000; stroke: #ff0000"/>
     <use xlink:href="#md20f6581b5" x="377.551874" y="132.752597" style="fill: #ff0000; stroke: #ff0000"/>
     <use xlink:href="#md20f6581b5" x="366.850053" y="118.556228" style="fill: #ff0000; stroke: #ff0000"/>
     <use xlink:href="#md20f6581b5" x="373.58091" y="65.023735" style="fill: #ff0000; stroke: #ff0000"/>
     <use xlink:href="#md20f6581b5" x="368.501043" y="79.665539" style="fill: #ff0000; stroke: #ff0000"/>
     <use xlink:href="#md20f6581b5" x="383.416601" y="80.42022" style="fill: #ff0000; stroke: #ff0000"/>
     <use xlink:href="#md20f6581b5" x="377.52393" y="122.130193" style="fill: #ff0000; stroke: #ff0000"/>
     <use xlink:href="#md20f6581b5" x="372.941591" y="129.034114" style="fill: #ff0000; stroke: #ff0000"/>
     <use xlink:href="#md20f6581b5" x="382.167018" y="53.568" style="fill: #ff0000; stroke: #ff0000"/>
     <use xlink:href="#md20f6581b5" x="390.961625" y="105.584073" style="fill: #ff0000; stroke: #ff0000"/>
     <use xlink:href="#md20f6581b5" x="378.475816" y="107.267902" style="fill: #ff0000; stroke: #ff0000"/>
     <use xlink:href="#md20f6581b5" x="389.966708" y="88.144936" style="fill: #ff0000; stroke: #ff0000"/>
     <use xlink:href="#md20f6581b5" x="392.969646" y="53.695133" style="fill: #ff0000; stroke: #ff0000"/>
     <use xlink:href="#md20f6581b5" x="398.487273" y="89.688672" style="fill: #ff0000; stroke: #ff0000"/>
    </g>
   </g>
   <g id="matplotlib.axis_1">
    <g id="xtick_1">
     <g id="line2d_1">
      <defs>
       <path id="m60b5667198" d="M 0 0 
L 0 3.5 
" style="stroke: #000000; stroke-width: 0.8"/>
      </defs>
      <g>
       <use xlink:href="#m60b5667198" x="79.619125" y="307.584" style="stroke: #000000; stroke-width: 0.8"/>
      </g>
     </g>
     <g id="text_1">
      <!-- 2.5 -->
      <g transform="translate(72.119125 321.459)scale(0.1 -0.1)">
       <defs>
        <path id="SimHei-32" d="M 300 250 
Q 325 625 650 925 
Q 975 1225 1475 1862 
Q 1975 2500 2125 2850 
Q 2275 3200 2237 3450 
Q 2200 3700 2000 3862 
Q 1800 4025 1537 4000 
Q 1275 3975 1037 3800 
Q 800 3625 675 3275 
L 200 3350 
Q 400 3925 712 4187 
Q 1025 4450 1450 4475 
Q 1700 4500 1900 4462 
Q 2100 4425 2312 4287 
Q 2525 4150 2662 3875 
Q 2800 3600 2762 3212 
Q 2725 2825 2375 2287 
Q 2025 1750 1025 600 
L 2825 600 
L 2825 150 
L 300 150 
L 300 250 
z
" transform="scale(0.015625)"/>
        <path id="SimHei-2e" d="M 1075 125 
L 500 125 
L 500 675 
L 1075 675 
L 1075 125 
z
" transform="scale(0.015625)"/>
        <path id="SimHei-35" d="M 550 1325 
Q 725 650 1150 575 
Q 1575 500 1837 662 
Q 2100 825 2212 1087 
Q 2325 1350 2312 1675 
Q 2300 2000 2137 2225 
Q 1975 2450 1725 2525 
Q 1475 2600 1162 2525 
Q 850 2450 650 2175 
L 225 2225 
Q 275 2375 700 4375 
L 2675 4375 
L 2675 3925 
L 1075 3925 
Q 950 3250 825 2850 
Q 1200 3025 1525 3012 
Q 1850 3000 2150 2862 
Q 2450 2725 2587 2487 
Q 2725 2250 2787 2012 
Q 2850 1775 2837 1500 
Q 2825 1225 2725 937 
Q 2625 650 2425 462 
Q 2225 275 1937 162 
Q 1650 50 1275 75 
Q 900 100 562 350 
Q 225 600 100 1200 
L 550 1325 
z
" transform="scale(0.015625)"/>
       </defs>
       <use xlink:href="#SimHei-32"/>
       <use xlink:href="#SimHei-2e" x="50"/>
       <use xlink:href="#SimHei-35" x="100"/>
      </g>
     </g>
    </g>
    <g id="xtick_2">
     <g id="line2d_2">
      <g>
       <use xlink:href="#m60b5667198" x="123.223794" y="307.584" style="stroke: #000000; stroke-width: 0.8"/>
      </g>
     </g>
     <g id="text_2">
      <!-- 5.0 -->
      <g transform="translate(115.723794 321.459)scale(0.1 -0.1)">
       <defs>
        <path id="SimHei-30" d="M 225 2537 
Q 250 3200 412 3587 
Q 575 3975 875 4225 
Q 1175 4475 1612 4475 
Q 2050 4475 2375 4112 
Q 2700 3750 2800 3200 
Q 2900 2650 2862 1937 
Q 2825 1225 2612 775 
Q 2400 325 1975 150 
Q 1550 -25 1125 187 
Q 700 400 525 750 
Q 350 1100 275 1487 
Q 200 1875 225 2537 
z
M 750 2687 
Q 675 2000 800 1462 
Q 925 925 1212 700 
Q 1500 475 1800 612 
Q 2100 750 2237 1162 
Q 2375 1575 2375 2062 
Q 2375 2550 2337 2950 
Q 2300 3350 2112 3675 
Q 1925 4000 1612 4012 
Q 1300 4025 1062 3700 
Q 825 3375 750 2687 
z
" transform="scale(0.015625)"/>
       </defs>
       <use xlink:href="#SimHei-35"/>
       <use xlink:href="#SimHei-2e" x="50"/>
       <use xlink:href="#SimHei-30" x="100"/>
      </g>
     </g>
    </g>
    <g id="xtick_3">
     <g id="line2d_3">
      <g>
       <use xlink:href="#m60b5667198" x="166.828462" y="307.584" style="stroke: #000000; stroke-width: 0.8"/>
      </g>
     </g>
     <g id="text_3">
      <!-- 7.5 -->
      <g transform="translate(159.328462 321.459)scale(0.1 -0.1)">
       <defs>
        <path id="SimHei-37" d="M 850 150 
Q 1300 2050 2425 3925 
L 275 3925 
L 275 4375 
L 2950 4375 
L 2950 3950 
Q 1775 2050 1400 150 
L 850 150 
z
" transform="scale(0.015625)"/>
       </defs>
       <use xlink:href="#SimHei-37"/>
       <use xlink:href="#SimHei-2e" x="50"/>
       <use xlink:href="#SimHei-35" x="100"/>
      </g>
     </g>
    </g>
    <g id="xtick_4">
     <g id="line2d_4">
      <g>
       <use xlink:href="#m60b5667198" x="210.43313" y="307.584" style="stroke: #000000; stroke-width: 0.8"/>
      </g>
     </g>
     <g id="text_4">
      <!-- 10.0 -->
      <g transform="translate(200.43313 321.459)scale(0.1 -0.1)">
       <defs>
        <path id="SimHei-31" d="M 1400 3600 
Q 1075 3275 575 2975 
L 575 3450 
Q 1200 3875 1600 4450 
L 1900 4450 
L 1900 150 
L 1400 150 
L 1400 3600 
z
" transform="scale(0.015625)"/>
       </defs>
       <use xlink:href="#SimHei-31"/>
       <use xlink:href="#SimHei-30" x="50"/>
       <use xlink:href="#SimHei-2e" x="100"/>
       <use xlink:href="#SimHei-30" x="150"/>
      </g>
     </g>
    </g>
    <g id="xtick_5">
     <g id="line2d_5">
      <g>
       <use xlink:href="#m60b5667198" x="254.037798" y="307.584" style="stroke: #000000; stroke-width: 0.8"/>
      </g>
     </g>
     <g id="text_5">
      <!-- 12.5 -->
      <g transform="translate(244.037798 321.459)scale(0.1 -0.1)">
       <use xlink:href="#SimHei-31"/>
       <use xlink:href="#SimHei-32" x="50"/>
       <use xlink:href="#SimHei-2e" x="100"/>
       <use xlink:href="#SimHei-35" x="150"/>
      </g>
     </g>
    </g>
    <g id="xtick_6">
     <g id="line2d_6">
      <g>
       <use xlink:href="#m60b5667198" x="297.642466" y="307.584" style="stroke: #000000; stroke-width: 0.8"/>
      </g>
     </g>
     <g id="text_6">
      <!-- 15.0 -->
      <g transform="translate(287.642466 321.459)scale(0.1 -0.1)">
       <use xlink:href="#SimHei-31"/>
       <use xlink:href="#SimHei-35" x="50"/>
       <use xlink:href="#SimHei-2e" x="100"/>
       <use xlink:href="#SimHei-30" x="150"/>
      </g>
     </g>
    </g>
    <g id="xtick_7">
     <g id="line2d_7">
      <g>
       <use xlink:href="#m60b5667198" x="341.247134" y="307.584" style="stroke: #000000; stroke-width: 0.8"/>
      </g>
     </g>
     <g id="text_7">
      <!-- 17.5 -->
      <g transform="translate(331.247134 321.459)scale(0.1 -0.1)">
       <use xlink:href="#SimHei-31"/>
       <use xlink:href="#SimHei-37" x="50"/>
       <use xlink:href="#SimHei-2e" x="100"/>
       <use xlink:href="#SimHei-35" x="150"/>
      </g>
     </g>
    </g>
    <g id="xtick_8">
     <g id="line2d_8">
      <g>
       <use xlink:href="#m60b5667198" x="384.851802" y="307.584" style="stroke: #000000; stroke-width: 0.8"/>
      </g>
     </g>
     <g id="text_8">
      <!-- 20.0 -->
      <g transform="translate(374.851802 321.459)scale(0.1 -0.1)">
       <use xlink:href="#SimHei-32"/>
       <use xlink:href="#SimHei-30" x="50"/>
       <use xlink:href="#SimHei-2e" x="100"/>
       <use xlink:href="#SimHei-30" x="150"/>
      </g>
     </g>
    </g>
    <g id="text_9">
     <!-- 房屋面积s -->
     <g transform="translate(213.66 334.834)scale(0.1 -0.1)">
      <defs>
       <path id="SimHei-623f" d="M 3175 2800 
Q 3500 2850 3700 2975 
Q 3925 2475 3975 2300 
L 5100 2300 
Q 5525 2300 6025 2325 
L 6025 1875 
Q 5525 1900 5100 1900 
L 3225 1900 
Q 3200 1550 3175 1325 
L 5525 1325 
Q 5475 950 5412 537 
Q 5350 125 5287 -112 
Q 5225 -350 5050 -437 
Q 4875 -525 4000 -600 
Q 3925 -275 3800 -50 
Q 4550 -100 4687 -25 
Q 4825 50 4875 250 
Q 4925 500 4975 900 
L 3100 900 
Q 2975 425 2612 0 
Q 2250 -425 1750 -725 
Q 1625 -500 1350 -325 
Q 1675 -200 1925 0 
Q 2175 200 2375 487 
Q 2575 775 2650 1137 
Q 2725 1500 2725 1900 
L 1500 1900 
Q 1475 1250 1262 562 
Q 1050 -125 750 -600 
Q 550 -375 275 -275 
Q 475 -50 687 387 
Q 900 825 975 1400 
Q 1050 1975 1050 2850 
Q 1050 3750 1025 4500 
L 3100 4500 
Q 3025 4750 2875 5100 
Q 3150 5175 3400 5275 
Q 3625 4700 3650 4500 
L 5575 4500 
Q 5550 4100 5550 3700 
Q 5550 3300 5575 3000 
L 1525 3000 
L 1525 2300 
L 3425 2300 
Q 3350 2600 3175 2800 
z
M 5100 3375 
L 5100 4100 
L 1525 4100 
L 1525 3375 
L 5100 3375 
z
" transform="scale(0.015625)"/>
       <path id="SimHei-5c4b" d="M 5525 4925 
Q 5500 4600 5500 4225 
Q 5500 3875 5525 3550 
L 1550 3550 
Q 1550 2700 1512 2137 
Q 1475 1575 1312 875 
Q 1150 175 725 -550 
Q 550 -400 275 -275 
Q 775 400 937 1250 
Q 1100 2100 1100 3075 
Q 1100 4050 1075 4925 
L 5525 4925 
z
M 5050 3100 
Q 5350 3100 5775 3125 
L 5775 2725 
Q 5350 2750 5050 2750 
L 3700 2750 
Q 3500 2550 2825 1950 
Q 3225 1950 3650 1962 
Q 4075 1975 4675 1975 
Q 4500 2150 4225 2375 
Q 4400 2525 4550 2675 
Q 5125 2175 5675 1625 
Q 5450 1500 5275 1325 
Q 5125 1525 4950 1650 
Q 4475 1650 3900 1625 
L 3900 1025 
L 4825 1025 
Q 5125 1025 5600 1050 
L 5600 625 
Q 5150 650 4825 650 
L 3900 650 
L 3900 0 
L 5275 0 
Q 5600 0 6050 25 
L 6050 -375 
Q 5600 -350 5275 -350 
L 2200 -350 
Q 1775 -350 1475 -375 
L 1475 25 
Q 1775 0 2175 0 
L 3450 0 
L 3450 650 
L 2675 650 
Q 2275 650 1875 625 
L 1875 1050 
Q 2275 1025 2650 1025 
L 3450 1025 
L 3450 1625 
Q 3150 1625 2850 1612 
Q 2550 1600 2150 1525 
Q 2125 1675 2000 1925 
Q 2250 1975 2500 2162 
Q 2750 2350 3150 2750 
L 2475 2750 
Q 2150 2750 1650 2725 
L 1650 3125 
Q 2125 3100 2450 3100 
L 5050 3100 
z
M 5075 3900 
L 5075 4550 
L 1550 4550 
L 1550 3900 
L 5075 3900 
z
" transform="scale(0.015625)"/>
       <path id="SimHei-9762" d="M 5275 4850 
Q 5650 4850 5950 4875 
L 5950 4400 
Q 5600 4425 5275 4425 
L 3275 4425 
Q 3175 4200 2950 3575 
L 5525 3575 
Q 5500 3100 5500 2600 
L 5500 450 
Q 5500 -100 5525 -525 
L 5025 -525 
L 5025 -175 
L 1350 -175 
L 1350 -525 
L 850 -525 
Q 875 -200 875 425 
L 875 2650 
Q 875 3125 850 3575 
L 2475 3575 
Q 2700 4150 2750 4425 
L 1175 4425 
Q 800 4425 425 4400 
L 425 4875 
Q 825 4850 1175 4850 
L 5275 4850 
z
M 2200 225 
L 2200 3175 
L 1350 3175 
L 1350 225 
L 2200 225 
z
M 5025 225 
L 5025 3175 
L 4175 3175 
L 4175 225 
L 5025 225 
z
M 3750 225 
L 3750 1050 
L 2625 1050 
L 2625 225 
L 3750 225 
z
M 3750 2475 
L 3750 3175 
L 2625 3175 
L 2625 2475 
L 3750 2475 
z
M 3750 1425 
L 3750 2100 
L 2625 2100 
L 2625 1425 
L 3750 1425 
z
" transform="scale(0.015625)"/>
       <path id="SimHei-79ef" d="M 5675 4700 
Q 5650 4275 5650 3575 
L 5650 2750 
Q 5650 2225 5675 1750 
L 3100 1750 
Q 3125 2225 3125 2750 
L 3125 3600 
Q 3125 4275 3100 4700 
L 5675 4700 
z
M 2850 4625 
Q 2600 4575 2400 4525 
Q 2200 4475 1925 4425 
L 1925 3275 
Q 2525 3275 2875 3300 
L 2875 2825 
Q 2525 2850 1925 2850 
L 1925 2075 
Q 2125 2225 2250 2350 
Q 2650 1775 2875 1450 
Q 2750 1375 2450 1150 
Q 2250 1575 1925 2000 
L 1925 300 
Q 1925 -75 1950 -675 
L 1425 -675 
Q 1475 -75 1475 300 
L 1475 1925 
Q 1275 1475 1125 1225 
Q 975 975 650 525 
Q 450 700 200 825 
Q 575 1200 900 1750 
Q 1225 2300 1375 2850 
Q 1025 2850 300 2825 
L 300 3300 
Q 1025 3275 1475 3275 
L 1475 4325 
Q 975 4250 525 4175 
Q 450 4400 350 4625 
Q 675 4600 1462 4750 
Q 2250 4900 2550 5075 
Q 2725 4775 2850 4625 
z
M 5175 2175 
L 5175 4300 
L 3575 4300 
L 3575 2175 
L 5175 2175 
z
M 4025 1075 
Q 3875 850 3512 350 
Q 3150 -150 2700 -650 
Q 2525 -475 2300 -300 
Q 2625 -50 2950 375 
Q 3275 800 3575 1400 
Q 3825 1200 4025 1075 
z
M 5050 1325 
Q 5275 1025 5587 625 
Q 5900 225 6200 -225 
Q 5900 -400 5725 -550 
Q 5550 -225 5200 287 
Q 4850 800 4650 1025 
Q 4850 1150 5050 1325 
z
" transform="scale(0.015625)"/>
       <path id="SimHei-73" d="M 2750 900 
Q 2750 500 2437 287 
Q 2125 75 1650 75 
Q 1050 75 725 312 
Q 400 550 400 1000 
L 900 1000 
Q 900 700 1112 600 
Q 1325 500 1625 500 
Q 1925 500 2075 612 
Q 2225 725 2225 900 
Q 2225 1025 2100 1150 
Q 1975 1275 1475 1350 
Q 900 1425 687 1637 
Q 475 1850 475 2200 
Q 475 2500 762 2737 
Q 1050 2975 1600 2975 
Q 2100 2975 2387 2750 
Q 2675 2525 2675 2150 
L 2175 2150 
Q 2175 2375 2012 2462 
Q 1850 2550 1600 2550 
Q 1275 2550 1137 2437 
Q 1000 2325 1000 2175 
Q 1000 2000 1125 1900 
Q 1250 1800 1650 1750 
Q 2300 1650 2525 1437 
Q 2750 1225 2750 900 
z
" transform="scale(0.015625)"/>
      </defs>
      <use xlink:href="#SimHei-623f"/>
      <use xlink:href="#SimHei-5c4b" x="100"/>
      <use xlink:href="#SimHei-9762" x="200"/>
      <use xlink:href="#SimHei-79ef" x="300"/>
      <use xlink:href="#SimHei-73" x="400"/>
     </g>
    </g>
   </g>
   <g id="matplotlib.axis_2">
    <g id="ytick_1">
     <g id="line2d_9">
      <defs>
       <path id="m98d15b6cdf" d="M 0 0 
L -3.5 0 
" style="stroke: #000000; stroke-width: 0.8"/>
      </defs>
      <g>
       <use xlink:href="#m98d15b6cdf" x="57.6" y="279.760656" style="stroke: #000000; stroke-width: 0.8"/>
      </g>
     </g>
     <g id="text_10">
      <!-- 1.0 -->
      <g transform="translate(35.6 283.198156)scale(0.1 -0.1)">
       <use xlink:href="#SimHei-31"/>
       <use xlink:href="#SimHei-2e" x="50"/>
       <use xlink:href="#SimHei-30" x="100"/>
      </g>
     </g>
    </g>
    <g id="ytick_2">
     <g id="line2d_10">
      <g>
       <use xlink:href="#m98d15b6cdf" x="57.6" y="242.748635" style="stroke: #000000; stroke-width: 0.8"/>
      </g>
     </g>
     <g id="text_11">
      <!-- 1.5 -->
      <g transform="translate(35.6 246.186135)scale(0.1 -0.1)">
       <use xlink:href="#SimHei-31"/>
       <use xlink:href="#SimHei-2e" x="50"/>
       <use xlink:href="#SimHei-35" x="100"/>
      </g>
     </g>
    </g>
    <g id="ytick_3">
     <g id="line2d_11">
      <g>
       <use xlink:href="#m98d15b6cdf" x="57.6" y="205.736614" style="stroke: #000000; stroke-width: 0.8"/>
      </g>
     </g>
     <g id="text_12">
      <!-- 2.0 -->
      <g transform="translate(35.6 209.174114)scale(0.1 -0.1)">
       <use xlink:href="#SimHei-32"/>
       <use xlink:href="#SimHei-2e" x="50"/>
       <use xlink:href="#SimHei-30" x="100"/>
      </g>
     </g>
    </g>
    <g id="ytick_4">
     <g id="line2d_12">
      <g>
       <use xlink:href="#m98d15b6cdf" x="57.6" y="168.724594" style="stroke: #000000; stroke-width: 0.8"/>
      </g>
     </g>
     <g id="text_13">
      <!-- 2.5 -->
      <g transform="translate(35.6 172.162094)scale(0.1 -0.1)">
       <use xlink:href="#SimHei-32"/>
       <use xlink:href="#SimHei-2e" x="50"/>
       <use xlink:href="#SimHei-35" x="100"/>
      </g>
     </g>
    </g>
    <g id="ytick_5">
     <g id="line2d_13">
      <g>
       <use xlink:href="#m98d15b6cdf" x="57.6" y="131.712573" style="stroke: #000000; stroke-width: 0.8"/>
      </g>
     </g>
     <g id="text_14">
      <!-- 3.0 -->
      <g transform="translate(35.6 135.150073)scale(0.1 -0.1)">
       <defs>
        <path id="SimHei-33" d="M 250 1225 
L 700 1300 
Q 800 975 1025 762 
Q 1250 550 1587 562 
Q 1925 575 2125 837 
Q 2325 1100 2300 1437 
Q 2275 1775 2037 1962 
Q 1800 2150 1275 2225 
L 1275 2550 
Q 1800 2600 2037 2825 
Q 2275 3050 2250 3412 
Q 2225 3775 1925 3937 
Q 1625 4100 1287 3975 
Q 950 3850 750 3275 
L 300 3350 
Q 450 3800 712 4100 
Q 975 4400 1425 4450 
Q 1875 4500 2212 4337 
Q 2550 4175 2687 3837 
Q 2825 3500 2725 3100 
Q 2625 2700 2150 2400 
Q 2500 2250 2687 1950 
Q 2875 1650 2812 1162 
Q 2750 675 2375 375 
Q 2000 75 1525 87 
Q 1050 100 700 387 
Q 350 675 250 1225 
z
" transform="scale(0.015625)"/>
       </defs>
       <use xlink:href="#SimHei-33"/>
       <use xlink:href="#SimHei-2e" x="50"/>
       <use xlink:href="#SimHei-30" x="100"/>
      </g>
     </g>
    </g>
    <g id="ytick_6">
     <g id="line2d_14">
      <g>
       <use xlink:href="#m98d15b6cdf" x="57.6" y="94.700552" style="stroke: #000000; stroke-width: 0.8"/>
      </g>
     </g>
     <g id="text_15">
      <!-- 3.5 -->
      <g transform="translate(35.6 98.138052)scale(0.1 -0.1)">
       <use xlink:href="#SimHei-33"/>
       <use xlink:href="#SimHei-2e" x="50"/>
       <use xlink:href="#SimHei-35" x="100"/>
      </g>
     </g>
    </g>
    <g id="ytick_7">
     <g id="line2d_15">
      <g>
       <use xlink:href="#m98d15b6cdf" x="57.6" y="57.688531" style="stroke: #000000; stroke-width: 0.8"/>
      </g>
     </g>
     <g id="text_16">
      <!-- 4.0 -->
      <g transform="translate(35.6 61.126031)scale(0.1 -0.1)">
       <defs>
        <path id="SimHei-34" d="M 2000 1100 
L 75 1100 
L 75 1525 
L 2100 4450 
L 2475 4450 
L 2475 1525 
L 3075 1525 
L 3075 1100 
L 2475 1100 
L 2475 150 
L 2000 150 
L 2000 1100 
z
M 2000 1525 
L 2000 3500 
L 600 1525 
L 2000 1525 
z
" transform="scale(0.015625)"/>
       </defs>
       <use xlink:href="#SimHei-34"/>
       <use xlink:href="#SimHei-2e" x="50"/>
       <use xlink:href="#SimHei-30" x="100"/>
      </g>
     </g>
    </g>
    <g id="text_17">
     <!-- 房价p -->
     <g transform="translate(30.35 187.028)rotate(-90)scale(0.1 -0.1)">
      <defs>
       <path id="SimHei-4ef7" d="M 2200 4975 
Q 2050 4725 1650 3775 
L 1650 450 
Q 1650 -225 1675 -650 
L 1175 -650 
Q 1175 -225 1200 450 
L 1200 2975 
Q 900 2425 650 2100 
Q 525 2275 225 2450 
Q 750 3025 1125 3800 
Q 1500 4575 1625 5175 
Q 1950 5025 2200 4975 
z
M 4175 4700 
Q 4850 3525 6150 2950 
Q 5925 2750 5775 2500 
Q 4725 3100 3950 4300 
Q 3300 3125 2250 2350 
Q 2125 2525 1900 2725 
Q 2825 3325 3250 4050 
Q 3675 4775 3750 5150 
Q 4150 4950 4325 4900 
L 4175 4700 
z
M 3475 2650 
Q 3400 2075 3325 1087 
Q 3250 100 2325 -675 
Q 2175 -450 1925 -300 
Q 2850 350 2912 1262 
Q 2975 2175 2950 2700 
Q 3275 2650 3475 2650 
z
M 5075 2700 
Q 5050 2150 5050 1725 
L 5050 150 
Q 5050 -225 5075 -650 
L 4550 -650 
Q 4575 -225 4575 175 
L 4575 1875 
Q 4575 2150 4550 2700 
L 5075 2700 
z
" transform="scale(0.015625)"/>
       <path id="SimHei-70" d="M 2825 1525 
Q 2825 800 2475 425 
Q 2125 50 1625 50 
Q 1350 50 1150 162 
Q 950 275 800 500 
L 800 -800 
L 300 -800 
L 300 2925 
L 800 2925 
L 800 2550 
Q 950 2775 1150 2875 
Q 1350 2975 1625 2975 
Q 2125 2975 2475 2612 
Q 2825 2250 2825 1525 
z
M 2275 1525 
Q 2275 2000 2087 2262 
Q 1900 2525 1525 2525 
Q 1225 2525 1012 2262 
Q 800 2000 800 1525 
Q 800 1050 1012 775 
Q 1225 500 1525 500 
Q 1900 500 2087 775 
Q 2275 1050 2275 1525 
z
" transform="scale(0.015625)"/>
      </defs>
      <use xlink:href="#SimHei-623f"/>
      <use xlink:href="#SimHei-4ef7" x="100"/>
      <use xlink:href="#SimHei-70" x="200"/>
     </g>
    </g>
   </g>
   <g id="patch_3">
    <path d="M 57.6 307.584 
L 57.6 41.472 
" style="fill: none; stroke: #000000; stroke-width: 0.8; stroke-linejoin: miter; stroke-linecap: square"/>
   </g>
   <g id="patch_4">
    <path d="M 414.72 307.584 
L 414.72 41.472 
" style="fill: none; stroke: #000000; stroke-width: 0.8; stroke-linejoin: miter; stroke-linecap: square"/>
   </g>
   <g id="patch_5">
    <path d="M 57.6 307.584 
L 414.72 307.584 
" style="fill: none; stroke: #000000; stroke-width: 0.8; stroke-linejoin: miter; stroke-linecap: square"/>
   </g>
   <g id="patch_6">
    <path d="M 57.6 41.472 
L 414.72 41.472 
" style="fill: none; stroke: #000000; stroke-width: 0.8; stroke-linejoin: miter; stroke-linecap: square"/>
   </g>
   <g id="text_18">
    <!-- 示范训练集 -->
    <g transform="translate(206.16 35.472)scale(0.12 -0.12)">
     <defs>
      <path id="SimHei-793a" d="M 5175 3050 
Q 5500 3050 5975 3075 
L 5975 2575 
Q 5500 2625 5150 2625 
L 3500 2625 
L 3500 -75 
Q 3500 -350 3212 -487 
Q 2925 -625 2425 -675 
Q 2400 -425 2175 -100 
Q 2625 -125 2825 -87 
Q 3025 -50 3025 175 
L 3025 2625 
L 1400 2625 
Q 900 2625 500 2600 
L 500 3075 
Q 925 3050 1400 3050 
L 5175 3050 
z
M 4425 4775 
Q 4775 4775 5225 4800 
L 5225 4325 
Q 4775 4350 4425 4350 
L 2125 4350 
Q 1600 4350 1200 4325 
L 1200 4800 
Q 1600 4775 2125 4775 
L 4425 4775 
z
M 2225 1825 
Q 1950 1400 1650 900 
Q 1350 400 975 -125 
Q 775 75 500 150 
Q 900 600 1200 1087 
Q 1500 1575 1725 2075 
Q 1975 1925 2225 1825 
z
M 4500 2025 
Q 5450 925 5925 275 
Q 5650 125 5475 -25 
Q 5100 550 4125 1750 
Q 4325 1850 4500 2025 
z
" transform="scale(0.015625)"/>
      <path id="SimHei-8303" d="M 4200 875 
Q 4150 1150 3925 1400 
Q 4450 1400 4612 1450 
Q 4775 1500 4800 1725 
L 4850 2700 
L 3400 2700 
L 3400 325 
Q 3450 -25 3825 0 
L 5150 0 
Q 5325 0 5412 100 
Q 5500 200 5550 625 
Q 5825 450 6075 375 
Q 5925 -150 5775 -275 
Q 5625 -400 5300 -400 
L 3475 -400 
Q 2900 -400 2900 225 
L 2900 2000 
Q 2900 2625 2875 3100 
L 5375 3100 
Q 5350 2750 5325 2175 
Q 5300 1600 5250 1375 
Q 5200 1150 4962 1050 
Q 4725 950 4200 875 
z
M 1875 4400 
Q 1875 4700 1850 5125 
L 2400 5125 
Q 2375 4775 2375 4400 
L 3975 4400 
Q 3975 4825 3925 5125 
L 4500 5125 
Q 4475 4825 4475 4400 
L 5375 4400 
Q 5650 4400 6050 4425 
L 6050 3975 
Q 5650 4000 5375 4000 
L 4475 4000 
Q 4475 3675 4500 3350 
L 3975 3350 
L 3975 4000 
L 2375 4000 
L 2375 3325 
L 1850 3325 
Q 1875 3650 1875 4000 
L 1025 4000 
Q 550 4000 350 3975 
L 350 4425 
Q 775 4400 1025 4400 
L 1875 4400 
z
M 2250 900 
Q 2000 600 1562 100 
Q 1125 -400 925 -625 
Q 800 -450 525 -250 
Q 775 -75 1237 425 
Q 1700 925 1925 1250 
Q 2075 1075 2250 900 
z
M 725 2275 
Q 1325 1925 1800 1600 
Q 1550 1425 1425 1200 
Q 975 1575 375 1900 
Q 550 2075 725 2275 
z
M 1300 3450 
Q 1750 3150 2250 2700 
Q 2050 2575 1850 2350 
Q 1400 2800 925 3100 
Q 1125 3275 1300 3450 
z
" transform="scale(0.015625)"/>
      <path id="SimHei-8bad" d="M 1650 3300 
Q 1625 2725 1625 2225 
L 1625 675 
Q 1950 1125 2050 1275 
Q 2175 1125 2350 900 
Q 2025 500 1800 212 
Q 1575 -75 1325 -425 
Q 1150 -200 950 -50 
Q 1150 225 1150 625 
L 1150 2875 
L 975 2875 
Q 600 2875 300 2850 
L 300 3325 
Q 600 3300 975 3300 
L 1650 3300 
z
M 3425 4600 
Q 3375 4350 3387 3362 
Q 3400 2375 3337 1887 
Q 3275 1400 3087 837 
Q 2900 275 2450 -375 
Q 2225 -200 1975 -125 
Q 2550 500 2762 1362 
Q 2975 2225 2950 3337 
Q 2925 4450 2900 4675 
Q 3150 4625 3425 4600 
z
M 5875 4700 
Q 5850 4500 5850 3975 
L 5850 625 
Q 5850 125 5875 -400 
L 5400 -400 
Q 5425 125 5425 600 
L 5425 3975 
Q 5425 4500 5400 4700 
L 5875 4700 
z
M 4600 175 
L 4125 175 
Q 4150 725 4150 1150 
L 4150 3600 
Q 4150 4050 4125 4350 
L 4600 4350 
L 4600 175 
z
M 1000 5150 
Q 1650 4600 2100 4100 
Q 1875 3925 1750 3750 
Q 1050 4550 700 4800 
Q 850 4950 1000 5150 
z
" transform="scale(0.015625)"/>
      <path id="SimHei-7ec3" d="M 3300 3825 
Q 2950 3825 2400 3800 
L 2400 4250 
Q 2950 4225 3325 4225 
L 3625 4225 
Q 3875 4950 3900 5175 
Q 4200 5025 4450 4925 
Q 4350 4825 4262 4612 
Q 4175 4400 4100 4225 
L 5025 4225 
Q 5425 4225 5900 4250 
L 5900 3800 
Q 5550 3825 5025 3825 
L 3975 3825 
Q 3850 3525 3700 3150 
L 4675 3150 
Q 4650 2875 4650 2475 
L 4650 1975 
L 4975 1975 
Q 5350 1975 5800 2000 
L 5800 1550 
Q 5350 1575 4975 1575 
L 4650 1575 
L 4650 125 
Q 4650 -300 4462 -425 
Q 4275 -550 3650 -625 
Q 3625 -375 3450 -100 
Q 4075 -125 4137 -25 
Q 4200 75 4200 325 
L 4200 1575 
L 3425 1575 
Q 3250 1575 3100 1562 
Q 2950 1550 2750 1475 
Q 2650 1725 2550 1950 
Q 2800 2025 3125 2775 
Q 2950 2775 2450 2750 
L 2450 3175 
Q 3025 3150 3250 3150 
Q 3400 3525 3500 3825 
L 3300 3825 
z
M 1650 2950 
Q 1875 3300 2100 3900 
Q 2325 3725 2575 3600 
Q 2325 3275 2025 2750 
Q 1725 2225 1075 1350 
Q 1300 1400 2400 1575 
Q 2350 1300 2375 1150 
Q 1825 1100 650 825 
Q 525 1075 400 1275 
Q 625 1400 887 1737 
Q 1150 2075 1450 2575 
Q 1300 2600 1012 2562 
Q 725 2525 450 2450 
Q 350 2675 250 2925 
Q 500 3075 812 3725 
Q 1125 4375 1325 5000 
Q 1600 4825 1850 4750 
Q 1600 4375 1387 3962 
Q 1175 3550 800 2925 
Q 1375 2925 1650 2950 
z
M 2425 700 
Q 2400 425 2425 250 
Q 2000 150 1462 -25 
Q 925 -200 475 -425 
Q 400 -150 300 125 
Q 950 275 1187 337 
Q 1425 400 2425 700 
z
M 3725 875 
Q 3650 800 3287 400 
Q 2925 0 2475 -475 
Q 2300 -250 2150 -125 
Q 2425 100 2750 462 
Q 3075 825 3325 1225 
Q 3475 1050 3725 875 
z
M 5275 1225 
Q 5925 375 6200 -100 
Q 5950 -200 5750 -375 
Q 5475 175 4900 950 
Q 5075 1050 5275 1225 
z
M 4200 1975 
L 4200 2775 
L 3575 2775 
Q 3325 2250 3175 1975 
L 4200 1975 
z
" transform="scale(0.015625)"/>
      <path id="SimHei-96c6" d="M 2275 4925 
Q 2125 4800 2025 4662 
Q 1925 4525 1850 4350 
L 4925 4350 
Q 5300 4350 5750 4375 
L 5750 3975 
L 3650 3975 
L 3650 3575 
L 4625 3575 
Q 4925 3575 5325 3600 
L 5325 3175 
Q 4925 3200 4625 3200 
L 3650 3200 
L 3650 2800 
L 4675 2800 
Q 5000 2800 5425 2825 
L 5425 2400 
Q 5000 2425 4675 2425 
L 3650 2425 
L 3650 2075 
L 4875 2075 
Q 5275 2075 5675 2100 
L 5675 1675 
Q 5300 1700 4900 1700 
L 1650 1700 
L 1650 1500 
L 1150 1500 
Q 1200 1950 1200 2325 
L 1200 3475 
Q 1050 3250 937 3125 
Q 825 3000 675 2825 
Q 500 3000 300 3125 
Q 475 3325 875 3825 
Q 1275 4325 1462 4650 
Q 1650 4975 1725 5225 
Q 1950 5100 2275 4925 
z
M 2975 1200 
Q 2975 1300 2950 1625 
L 3475 1625 
Q 3450 1275 3450 1200 
L 5050 1200 
Q 5500 1200 5925 1225 
L 5925 825 
L 4150 825 
Q 4500 525 4925 362 
Q 5350 200 6100 25 
Q 5875 -225 5775 -475 
Q 5275 -300 4962 -162 
Q 4650 -25 4387 137 
Q 4125 300 3950 462 
Q 3775 625 3575 825 
L 3450 825 
L 3450 250 
Q 3450 -275 3500 -650 
L 2950 -650 
Q 2975 -300 2975 250 
L 2975 825 
L 2875 825 
Q 2700 575 2475 375 
Q 2250 175 1987 12 
Q 1725 -150 1425 -300 
Q 1125 -450 700 -575 
Q 600 -325 400 -75 
Q 925 50 1475 262 
Q 2025 475 2300 825 
L 500 825 
L 500 1225 
Q 800 1200 1400 1200 
L 2975 1200 
z
M 3150 2800 
L 3150 3200 
L 1650 3200 
L 1650 2800 
L 3150 2800 
z
M 3150 3575 
L 3150 3975 
L 1650 3975 
L 1650 3575 
L 3150 3575 
z
M 3150 2075 
L 3150 2425 
L 1650 2425 
L 1650 2075 
L 3150 2075 
z
M 3450 5250 
Q 3575 5150 3712 5000 
Q 3850 4850 4000 4650 
Q 3850 4525 3575 4375 
Q 3425 4575 3325 4700 
Q 3225 4825 3075 4950 
Q 3275 5075 3450 5250 
z
" transform="scale(0.015625)"/>
     </defs>
     <use xlink:href="#SimHei-793a"/>
     <use xlink:href="#SimHei-8303" x="100"/>
     <use xlink:href="#SimHei-8bad" x="200"/>
     <use xlink:href="#SimHei-7ec3" x="300"/>
     <use xlink:href="#SimHei-96c6" x="400"/>
    </g>
   </g>
  </g>
 </g>
 <defs>
  <clipPath id="p8a3bb70bd5">
   <rect x="57.6" y="41.472" width="357.12" height="266.112"/>
  </clipPath>
 </defs>
</svg>
